<svg xmlns="http://www.w3.org/2000/svg" viewBox="0 0 1815.857 2032.095">
    <defs>
        <style>
            .cls-1{opacity:.05}.cls-2{fill:#798cff}.cls-3{opacity:.22;fill:url(#linear-gradient)}
        </style>
        <linearGradient id="linear-gradient" x1=".34" x2=".5" y1=".206" y2=".63" gradientUnits="objectBoundingBox">
            <stop offset="0" stop-color="#eaedff"/>
            <stop offset="1" stop-color="#757780" stop-opacity="0"/>
        </linearGradient>
    </defs>
    <g id="Group_3303" data-name="Group 3303" transform="translate(369.857 -392.626)">
        <g id="Group_3237" class="cls-1" data-name="Group 3237" transform="rotate(90 472.419 748.419)">
            <g id="Group_3143" data-name="Group 3143" transform="translate(911.218 931.691)">
                <path id="Path_6440" d="M329.926 280.044l-35.885 46.565-58.526-7.69-22.215-54.254 35.885-46.565 58.526 7.69zm-43.147 28.622l23.921-31.185-14.95-36.312-38.875-5.126-23.923 31.186L247.9 303.54z" class="cls-2" data-name="Path 6440" transform="translate(-213.3 -218.1)"/>
            </g>
            <g id="Group_3144" data-name="Group 3144" transform="translate(1748.104 602.319)">
                <path id="Path_6441" d="M479.688 255.49L423.3 238.829l-14.1-57.245L451.92 141l56.391 16.661 14.1 57.245zM437.4 225.158l37.594 11.107 28.2-26.914-9.4-38.448-37.602-11.103L428 186.71z" class="cls-2" data-name="Path 6441" transform="translate(-409.2 -141)"/>
            </g>
            <g id="Group_3145" data-name="Group 3145" transform="translate(116.626 746.713)">
                <path id="Path_6442" d="M27.3 288.863L35.844 174.8l94.838 64.507zm23.5-83.3l-3.845 55.109 49.555-23.923z" class="cls-2" data-name="Path 6442" transform="translate(-27.3 -174.8)"/>
            </g>
            <g id="Group_3146" data-name="Group 3146" transform="translate(1476.832 1128.63)">
                <path id="Path_6443" d="M345.7 377.408L362.788 264.2l89.285 71.342zm29.9-81.168l-8.544 54.682 51.691-20.078z" class="cls-2" data-name="Path 6443" transform="translate(-345.7 -264.2)"/>
            </g>
            <g id="Group_3147" data-name="Group 3147" transform="translate(1820.728 268.676)">
                <path id="Path_6444" d="M527.874 176.962L426.2 124.417 522.747 62.9zm-67.5-54.254L509.5 148.34l-2.563-55.109z" class="cls-2" data-name="Path 6444" transform="translate(-426.2 -62.9)"/>
            </g>
            <g id="Group_3148" data-name="Group 3148" transform="translate(918.908 36.706)">
                <path id="Path_6445" d="M316.774 122.662L215.1 70.117 311.647 8.6zm-67.5-54.254L298.4 94.04l-2.563-55.109z" class="cls-2" data-name="Path 6445" transform="translate(-215.1 -8.6)"/>
            </g>
            <g id="Group_3149" data-name="Group 3149" transform="translate(313.992 342.582)">
                <path id="Path_6446" d="M172.61 194.69L73.5 137.445 172.61 80.2zm-64.934-57.245l47.846 27.768v-55.536z" class="cls-2" data-name="Path 6446" transform="translate(-73.5 -80.2)"/>
            </g>
            <g id="Group_3150" data-name="Group 3150" transform="translate(689.074 290.463)">
                <path id="Path_6447" d="M265.964 135.07L161.3 181.635 173.262 68zm-84.586 18.8l50.41-22.214-44.856-32.47z" class="cls-2" data-name="Path 6447" transform="translate(-161.3 -68)"/>
            </g>
            <g id="Group_3151" data-name="Group 3151" transform="translate(589.964 787.724)">
                <path id="Path_6448" d="M138.1 247.626l19.651-63.226 97.4 29.9-19.651 63.23zm30.758-41.866l-9.4 30.331 64.934 20.078 9.4-30.331z" class="cls-2" data-name="Path 6448" transform="translate(-138.1 -184.4)"/>
            </g>
            <g id="Group_3152" data-name="Group 3152" transform="translate(1898.906 1110.688)">
                <path id="Path_6449" d="M477.394 368.082L444.5 310.837 532.931 260l32.895 57.245zm-9.825-50.837l15.807 27.768 58.524-33.749-15.8-27.764z" class="cls-2" data-name="Path 6449" transform="translate(-444.5 -260)"/>
            </g>
            <g id="Group_3153" data-name="Group 3153" transform="translate(281.952 131.117)">
                <path id="Path_6450" d="M98.894 138.782L66 81.537 154.43 30.7l32.894 57.245zm-9.825-50.837l15.806 27.768L163.4 81.964 147.6 54.2z" class="cls-2" data-name="Path 6450" transform="translate(-66 -30.7)"/>
            </g>
            <g id="Group_3154" data-name="Group 3154" transform="translate(232.397 1119.232)">
                <path id="Path_6451" d="M91.994 381.189L54.4 286.35 115.917 262l37.594 94.839zm-15.38-85.013l25.2 62.8 29.486-11.963-25.2-62.8z" class="cls-2" data-name="Path 6451" transform="translate(-54.4 -262)"/>
            </g>
            <g id="Group_3156" data-name="Group 3156" transform="translate(1487.084 296.444)">
                <path id="Path_6453" d="M398.937 171.074a50.837 50.837 0 0 1 0-101.674c27.768 0 50.837 23.069 50.837 50.837a50.958 50.958 0 0 1-50.837 50.837zm0-85.013a33.749 33.749 0 1 0 33.749 33.749 33.82 33.82 0 0 0-33.749-33.749z" class="cls-2" data-name="Path 6453" transform="translate(-348.1 -69.4)"/>
            </g>
            <g id="Group_3157" data-name="Group 3157" transform="translate(1462.734 884.272)">
                <path id="Path_6454" d="M393.237 308.674a50.837 50.837 0 1 1 50.837-50.837 50.958 50.958 0 0 1-50.837 50.837zm0-85.013a33.749 33.749 0 1 0 33.749 33.749 33.82 33.82 0 0 0-33.749-33.749z" class="cls-2" data-name="Path 6454" transform="translate(-342.4 -207)"/>
            </g>
            <g id="Group_3159" data-name="Group 3159" transform="translate(595.122 91.93)">
                <path id="Rectangle_761" d="M0 0h17.088v104.664H0z" class="cls-2" data-name="Rectangle 761" transform="rotate(-83.91 9.453 8.499)"/>
            </g>
            <g id="Group_3160" data-name="Group 3160" transform="translate(1257.334 659.59)">
                <path id="Rectangle_762" d="M0 0h17.088v104.664H0z" class="cls-2" data-name="Rectangle 762" transform="rotate(-83.91 9.453 8.499)"/>
            </g>
            <g id="Group_3162" data-name="Group 3162" transform="translate(458.348 993.778)">
                <path id="Rectangle_764" d="M0 0h104.664v17.088H0z" class="cls-2" data-name="Rectangle 764" transform="rotate(-52.84 83.899 41.686)"/>
            </g>
            <g id="Group_3163" data-name="Group 3163" transform="translate(2071.847)">
                <path id="Rectangle_765" d="M0 0h104.664v17.088H0z" class="cls-2" data-name="Rectangle 765" transform="rotate(-52.84 83.91 41.692)"/>
            </g>
            <g id="Group_3166" data-name="Group 3166" transform="translate(1376.421 62.671)">
                <g id="Group_3164" data-name="Group 3164" transform="translate(.017)">
                    <path id="Rectangle_766" d="M0 0h17.088v104.664H0z" class="cls-2" data-name="Rectangle 766" transform="rotate(-45 14.585 6.042)"/>
                </g>
                <g id="Group_3165" data-name="Group 3165" transform="translate(0 .283)">
                    <path id="Rectangle_767" d="M0 0h104.664v17.088H0z" class="cls-2" data-name="Rectangle 767" transform="rotate(-45 89.336 37.004)"/>
                </g>
            </g>
            <g id="Group_3169" data-name="Group 3169" transform="translate(634.409 1080.887)">
                <g id="Group_3167" data-name="Group 3167" transform="translate(13.666)">
                    <path id="Rectangle_768" d="M0 0h17.088v104.664H0z" class="cls-2" data-name="Rectangle 768" transform="rotate(-31.931 15.796 4.519)"/>
                </g>
                <g id="Group_3168" data-name="Group 3168" transform="translate(0 13.988)">
                    <path id="Rectangle_769" d="M0 0h104.664v17.088H0z" class="cls-2" data-name="Rectangle 769" transform="rotate(-31.931 96.746 27.679)"/>
                </g>
            </g>
            <g id="Group_3172" data-name="Group 3172" transform="translate(2000.612 775.145)">
                <g id="Group_3170" data-name="Group 3170" transform="translate(13.738)">
                    <path id="Rectangle_770" d="M0 0h17.088v104.664H0z" class="cls-2" data-name="Rectangle 770" transform="rotate(-31.931 15.796 4.519)"/>
                </g>
                <g id="Group_3171" data-name="Group 3171" transform="translate(0 13.89)">
                    <path id="Rectangle_771" d="M0 0h104.664v17.088H0z" class="cls-2" data-name="Rectangle 771" transform="rotate(-31.931 96.746 27.679)"/>
                </g>
            </g>
            <g id="Group_3252" data-name="Group 3252" transform="translate(1040.612 621.145)">
                <g id="Group_3170-2" data-name="Group 3170" transform="translate(13.738)">
                    <path id="Rectangle_770-2" d="M0 0h17.088v104.664H0z" class="cls-2" data-name="Rectangle 770" transform="rotate(-31.931 15.796 4.519)"/>
                </g>
                <g id="Group_3171-2" data-name="Group 3171" transform="translate(0 13.89)">
                    <path id="Rectangle_771-2" d="M0 0h104.664v17.088H0z" class="cls-2" data-name="Rectangle 771" transform="rotate(-31.931 96.746 27.679)"/>
                </g>
            </g>
            <g id="Group_3179" data-name="Group 3179" transform="translate(1728.639 996.523)">
                <path id="Rectangle_776" d="M0 0h104.664v17.088H0z" class="cls-2" data-name="Rectangle 776" transform="rotate(-8.789 104.054 7.996)"/>
            </g>
            <g id="Group_3180" data-name="Group 3180" transform="translate(1675.324 132.73)">
                <path id="Rectangle_777" d="M0 0h104.664v17.088H0z" class="cls-2" data-name="Rectangle 777" transform="rotate(-8.789 104.054 7.996)"/>
            </g>
        </g>
        <path id="Union_29" d="M340.488 499.654a2.413 2.413 0 1 1 2.412 2.409 2.407 2.407 0 0 1-2.412-2.409zm-175.8 0a2.205 2.205 0 1 1 2.2 2.2 2.206 2.206 0 0 1-2.203-2.2zm332.051.8a.747.747 0 1 1 .745.748.745.745 0 0 1-.749-.749zm-104.217-1.188a1.749 1.749 0 1 1 1.749 1.747 1.749 1.749 0 0 1-1.753-1.748zm-380.756 1.187a.541.541 0 1 1 .541.538.539.539 0 0 1-.541-.538zm102.048-1.188a1.706 1.706 0 1 1 1.708 1.709 1.7 1.7 0 0 1-1.708-1.709zm355.335-2.385a.958.958 0 1 1 .957.964.962.962 0 0 1-.957-.964zm-430.178 0a.708.708 0 1 1 .708.711.707.707 0 0 1-.708-.711zm224.443-3.421a2.7 2.7 0 1 1 2.7 2.707 2.7 2.7 0 0 1-2.699-2.707zm-22.447 0a2.7 2.7 0 1 1 2.705 2.707 2.706 2.706 0 0 1-2.705-2.707zm44.828-2.134a2.665 2.665 0 1 1 2.669 2.664 2.664 2.664 0 0 1-2.664-2.664zm-67.133 0a2.664 2.664 0 1 1 2.665 2.664 2.66 2.66 0 0 1-2.664-2.664zm222.192 1.235a1.207 1.207 0 1 1 1.206 1.21 1.2 1.2 0 0 1-1.205-1.21zm-374.04 0a.916.916 0 1 1 .916.92.919.919 0 0 1-.915-.921zm294.618-1.495a2.2 2.2 0 1 1 2.2 2.206 2.21 2.21 0 0 1-2.199-2.207zm-217.193 0a1.914 1.914 0 1 1 1.913 1.913 1.91 1.91 0 0 1-1.912-1.914zm163.68-3.992a2.58 2.58 0 1 1 2.579 2.586 2.578 2.578 0 0 1-2.578-2.587zm-111.17 0a2.539 2.539 0 1 1 2.539 2.547 2.538 2.538 0 0 1-2.538-2.548zm214.993.2a1.5 1.5 0 1 1 1.5 1.5 1.5 1.5 0 0 1-1.499-1.503zm-316.609 0a1.415 1.415 0 1 1 1.415 1.415 1.411 1.411 0 0 1-1.414-1.418zm234.491-6.519a2.415 2.415 0 1 1 2.415 2.415 2.416 2.416 0 0 1-2.414-2.418zm-154.245 0a2.372 2.372 0 1 1 2.374 2.375 2.375 2.375 0 0 1-2.373-2.378zm206.17-.052a2 2 0 1 1 2 2 2 2 0 0 1-1.999-2.002zm-257.015 0a1.707 1.707 0 1 1 1.708 1.7 1.708 1.708 0 0 1-1.706-1.702zm360.972.588a.748.748 0 1 1 .75.75.749.749 0 0 1-.748-.753zm-462.518 0a.541.541 0 1 1 .542.54.542.542 0 0 1-.54-.544zm434.835-3.366a1.25 1.25 0 1 1 1.248 1.246 1.25 1.25 0 0 1-1.246-1.25zm-408.317 0a1.207 1.207 0 1 1 1.206 1.205 1.206 1.206 0 0 1-1.204-1.209zm379.8-4.139a1.874 1.874 0 1 1 1.874 1.874 1.876 1.876 0 0 1-1.869-1.878zm-177.743-1.5a3.331 3.331 0 1 1 3.33 3.333 3.331 3.331 0 0 1-3.325-3.334zM77.1 473.781a1.5 1.5 0 1 1 1.5 1.5 1.5 1.5 0 0 1-1.5-1.5zm273.024-1.371a2.747 2.747 0 1 1 2.746 2.749 2.746 2.746 0 0 1-2.743-2.749zm-195.875 0a2.662 2.662 0 1 1 2.662 2.666 2.664 2.664 0 0 1-2.658-2.666zm119.724-1.3a3.33 3.33 0 1 1 3.332 3.33 3.33 3.33 0 0 1-3.328-3.33zm-44.743 0a3.247 3.247 0 1 1 3.247 3.246 3.245 3.245 0 0 1-3.243-3.246zm67-3.514a3.246 3.246 0 1 1 3.25 3.252 3.244 3.244 0 0 1-3.251-3.248zm104.046 1.041a2.205 2.205 0 1 1 2.2 2.206 2.206 2.206 0 0 1-2.201-2.205zM207.193 467.6a3.121 3.121 0 1 1 3.121 3.125 3.12 3.12 0 0 1-3.121-3.125zm-101.675 1.042a1.791 1.791 0 1 1 1.79 1.787 1.795 1.795 0 0 1-1.79-1.79zM7.847 464.6a.665.665 0 1 1 .663.665.663.663 0 0 1-.663-.665zm310.143-2.81a3.164 3.164 0 1 1 3.164 3.16 3.168 3.168 0 0 1-3.164-3.16zm-132.266 0a2.913 2.913 0 1 1 2.913 2.917 2.912 2.912 0 0 1-2.913-2.917zm184.649.337a2.455 2.455 0 1 1 2.452 2.452 2.455 2.455 0 0 1-2.452-2.452zm-235.781 0a2.371 2.371 0 1 1 2.371 2.375 2.37 2.37 0 0 1-2.371-2.375zm339.11-.082a1.246 1.246 0 1 1 1.246 1.247 1.249 1.249 0 0 1-1.248-1.246zm-439.779 0a.915.915 0 1 1 .914.914.914.914 0 0 1-.914-.913zm412.152-3.15a1.915 1.915 0 1 1 1.912 1.916 1.912 1.912 0 0 1-1.913-1.911zM60.3 458.9a1.5 1.5 0 1 1 1.5 1.5 1.5 1.5 0 0 1-1.5-1.5zm278.268-5.151a3.538 3.538 0 1 1 3.538 3.538 3.536 3.536 0 0 1-3.536-3.543zM418 454.973a2.29 2.29 0 1 1 2.288 2.287 2.288 2.288 0 0 1-2.288-2.287zm-253.523-1.228a3.205 3.205 0 1 1 3.205 3.2 3.2 3.2 0 0 1-3.206-3.201zm-76.808 1.229A1.832 1.832 0 1 1 89.5 456.8a1.83 1.83 0 0 1-1.832-1.826zm174.5-4.452a3.953 3.953 0 1 1 3.952 3.949 3.95 3.95 0 0 1-3.958-3.95zm-22.443 0a3.954 3.954 0 1 1 3.954 3.949 3.953 3.953 0 0 1-3.96-3.95zm149.365-.527a2.623 2.623 0 1 1 2.622 2.621 2.621 2.621 0 0 1-2.628-2.622zm-273.585 0a2.58 2.58 0 1 1 2.581 2.579 2.584 2.584 0 0 1-2.587-2.58zm169.034-2.083a3.87 3.87 0 1 1 3.87 3.868 3.87 3.87 0 0 1-3.876-3.869zm-67.023 0a3.871 3.871 0 1 1 3.873 3.868 3.872 3.872 0 0 1-3.879-3.869zm141.308-4.351a3.288 3.288 0 1 1 3.286 3.285 3.288 3.288 0 0 1-3.292-3.286zm-52.325-.824a3.747 3.747 0 1 1 3.748 3.747 3.748 3.748 0 0 1-3.754-3.748zm-110.695 0a3.746 3.746 0 1 1 3.745 3.747 3.746 3.746 0 0 1-3.75-3.748zm-50.986.824a2.87 2.87 0 1 1 2.87 2.872 2.875 2.875 0 0 1-2.876-2.873zm343.572 1.467a1.208 1.208 0 1 1 1.205 1.209 1.212 1.212 0 0 1-1.211-1.21zm-469.02 0a.831.831 0 1 1 .831.832.832.832 0 0 1-.837-.833zm442.594-2.319a1.581 1.581 0 1 1 1.579 1.583 1.579 1.579 0 0 1-1.586-1.583zm-416.83 0a1.123 1.123 0 1 1 1.122 1.123 1.121 1.121 0 0 1-1.129-1.123zm389.8-2.9a1.915 1.915 0 1 1 1.916 1.912 1.918 1.918 0 0 1-1.927-1.913zm-363.8 0a1.831 1.831 0 1 1 1.83 1.829 1.834 1.834 0 0 1-1.841-1.83zm335.105-3.69a3.122 3.122 0 1 1 3.12 3.12 3.123 3.123 0 0 1-3.131-3.121zm-79.021-1.056a4.121 4.121 0 1 1 4.124 4.124 4.121 4.121 0 0 1-4.135-4.126zm-152.829 0a4.079 4.079 0 1 1 4.079 4.075 4.077 4.077 0 0 1-4.09-4.078zm-76.524 1.057a2.58 2.58 0 1 1 2.578 2.579 2.582 2.582 0 0 1-2.588-2.581zm279.58-4.785a3.493 3.493 0 1 1 3.493 3.5 3.493 3.493 0 0 1-3.504-3.502zm-251.572 0a3 3 0 1 1 3 2.993 3 3 0 0 1-3.011-2.995zm124.401-1.935a4.62 4.62 0 1 1 4.62 4.617 4.62 4.62 0 0 1-4.62-4.617zm22.389-1.47a4.62 4.62 0 1 1 4.618 4.624 4.616 4.616 0 0 1-4.618-4.622zm-44.7 0a4.536 4.536 0 1 1 4.536 4.534 4.537 4.537 0 0 1-4.534-4.532zm119.589-2.945a3.83 3.83 0 1 1 3.83 3.832 3.833 3.833 0 0 1-3.829-3.83zm-192.9 0a3.745 3.745 0 1 1 3.746 3.748 3.743 3.743 0 0 1-3.741-3.747zm140.1-1.428a4.536 4.536 0 1 1 4.535 4.538 4.532 4.532 0 0 1-4.532-4.537zM5.825 426.968A1.041 1.041 0 1 1 6.865 428a1.043 1.043 0 0 1-1.04-1.032zm200.343-3.411a4.329 4.329 0 1 1 4.328 4.328 4.332 4.332 0 0 1-4.328-4.328zm270.071 1.762a1.5 1.5 0 1 1 1.5 1.5 1.5 1.5 0 0 1-1.5-1.501zm-445.6 0a1.415 1.415 0 1 1 1.415 1.417 1.411 1.411 0 0 1-1.415-1.418zm419.073-2.063a2.287 2.287 0 1 1 2.288 2.291 2.29 2.29 0 0 1-2.288-2.292zM56 423.26a1.79 1.79 0 1 1 1.789 1.787A1.79 1.79 0 0 1 56 423.26zm366.892-2.634a2.705 2.705 0 1 1 2.706 2.706 2.7 2.7 0 0 1-2.708-2.706zm-340.906 0a2.206 2.206 0 1 1 2.208 2.211 2.205 2.205 0 0 1-2.21-2.211zm234.186-4.281a4.371 4.371 0 1 1 4.368 4.371 4.369 4.369 0 0 1-4.37-4.371zm-131 0a4.078 4.078 0 1 1 4.076 4.071 4.077 4.077 0 0 1-4.075-4.07zm210.079.864a3.12 3.12 0 1 1 3.12 3.121 3.122 3.122 0 0 1-3.119-3.12zm-286.414 0a2.581 2.581 0 1 1 2.582 2.579 2.581 2.581 0 0 1-2.581-2.578zm256.887-4.555a4.412 4.412 0 1 1 4.408 4.415 4.407 4.407 0 0 1-4.406-4.414zm-229.942 0a3.871 3.871 0 1 1 3.871 3.874 3.873 3.873 0 0 1-3.869-3.872zm124.957-5.117a5.367 5.367 0 1 1 5.367 5.37 5.367 5.367 0 0 1-5.365-5.368zm-22.391 0a5.327 5.327 0 1 1 5.328 5.329 5.33 5.33 0 0 1-5.326-5.326zm97.569-1.125a4.743 4.743 0 1 1 4.745 4.748 4.742 4.742 0 0 1-4.743-4.745zm-171.083 0a4.287 4.287 0 1 1 4.287 4.288 4.284 4.284 0 0 1-4.284-4.285zm118.21-2.217a5.246 5.246 0 1 1 5.243 5.24 5.247 5.247 0 0 1-5.24-5.235zm-66.8 0a5.244 5.244 0 1 1 5.244 5.24 5.248 5.248 0 0 1-5.239-5.235zm272.494 2.646a1.747 1.747 0 1 1 1.746 1.746 1.746 1.746 0 0 1-1.74-1.743zm-470.69 0a1.248 1.248 0 1 1 1.252 1.249 1.248 1.248 0 0 1-1.246-1.246zm445.4-1.4a2.208 2.208 0 1 1 2.211 2.2 2.2 2.2 0 0 1-2.202-2.192zm-421 0a1.666 1.666 0 1 1 1.665 1.669 1.664 1.664 0 0 1-1.657-1.661zm395.221-1.781a2.62 2.62 0 1 1 2.619 2.624 2.62 2.62 0 0 1-2.612-2.616zm-370.262 0a2.081 2.081 0 1 1 2.079 2.078 2.076 2.076 0 0 1-2.071-2.071zm343.7-2.327a3.121 3.121 0 1 1 3.123 3.12 3.124 3.124 0 0 1-3.113-3.113zm-318.564 0a3 3 0 1 1 3 3 2.993 2.993 0 0 1-2.99-2.993zm212.1-3.759a5.077 5.077 0 1 1 5.079 5.076 5.078 5.078 0 0 1-5.069-5.069zm-109.59 0a4.994 4.994 0 1 1 4.993 5 5 5 0 0 1-4.983-4.993zm188.265.649a4 4 0 1 1 3.992 4 4 4 0 0 1-3.981-3.993zm-264.317 0a3.454 3.454 0 1 1 3.455 3.456 3.453 3.453 0 0 1-3.445-3.45zm235.313-4.279a4.993 4.993 0 1 1 4.993 4.994 4.994 4.994 0 0 1-4.983-4.987zm-208.225 0a4.37 4.37 0 1 1 4.37 4.371 4.372 4.372 0 0 1-4.359-4.363zm178.477-6.1a5.367 5.367 0 1 1 5.367 5.368 5.367 5.367 0 0 1-5.357-5.363zm-150.014 0a5.286 5.286 0 1 1 5.285 5.286 5.285 5.285 0 0 1-5.274-5.281zm74.215-1.333a6.119 6.119 0 1 1 6.117 6.122 6.116 6.116 0 0 1-6.106-6.117zm22.342-1.951a6.117 6.117 0 1 1 6.117 6.118 6.116 6.116 0 0 1-6.106-6.113zm-44.476 0a5.911 5.911 0 1 1 5.911 5.9 5.912 5.912 0 0 1-5.901-5.895zM6.618 387.405a1.457 1.457 0 1 1 1.458 1.455 1.458 1.458 0 0 1-1.458-1.455zm469.111-.889a2 2 0 1 1 2 2 2 2 0 0 1-1.999-2zm-445.581 0a1.915 1.915 0 1 1 1.917 1.913 1.915 1.915 0 0 1-1.916-1.913zm420.209-1.133a2.955 2.955 0 1 1 2.955 2.952 2.96 2.96 0 0 1-2.954-2.952zm-396.255 0a2.371 2.371 0 1 1 2.371 2.374 2.373 2.373 0 0 1-2.373-2.374zM424.87 383.9a3.494 3.494 0 1 1 3.493 3.495 3.494 3.494 0 0 1-3.493-3.495zm-346.27 0a2.83 2.83 0 1 1 2.83 2.834 2.829 2.829 0 0 1-2.83-2.834zm320.135-1.99a4 4 0 1 1 3.994 4 3.993 3.993 0 0 1-3.998-4.004zm-295.038 0a3.37 3.37 0 1 1 3.371 3.374 3.368 3.368 0 0 1-3.375-3.378zm189.251-3.147a5.953 5.953 0 1 1 5.951 5.95 5.951 5.951 0 0 1-5.955-5.954zm-87.712 0a5.661 5.661 0 1 1 5.661 5.66 5.663 5.663 0 0 1-5.665-5.664zm166.464.4a4.494 4.494 0 1 1 4.493 4.5 4.493 4.493 0 0 1-4.493-4.505zm-241.963 0a3.869 3.869 0 1 1 3.87 3.874 3.868 3.868 0 0 1-3.874-3.879zm213.372-3.943a5.369 5.369 0 1 1 5.37 5.363 5.371 5.371 0 0 1-5.374-5.368zm-186.662 0a4.869 4.869 0 1 1 4.869 4.866 4.869 4.869 0 0 1-4.873-4.871zm156.327-5.933a6.451 6.451 0 1 1 6.451 6.449 6.455 6.455 0 0 1-6.454-6.454zm-128.071 0a5.869 5.869 0 1 1 5.87 5.864 5.873 5.873 0 0 1-5.873-5.869zm74.534-4.8a6.868 6.868 0 1 1 6.868 6.872 6.866 6.866 0 0 1-6.871-6.876zm-22.412 0a6.868 6.868 0 1 1 6.867 6.872 6.865 6.865 0 0 1-6.871-6.876zm249.063 2.122a2.208 2.208 0 1 1 2.2 2.208 2.206 2.206 0 0 1-2.203-2.211zm-24.094-.663a2.747 2.747 0 1 1 2.749 2.746 2.749 2.749 0 0 1-2.753-2.749zm-24.492-.867a3.288 3.288 0 1 1 3.29 3.287 3.29 3.29 0 0 1-3.292-3.289zm-417.225 1.53a1.623 1.623 0 1 1 1.622 1.619 1.626 1.626 0 0 1-1.625-1.621zm23.1-.663a2.081 2.081 0 1 1 2.081 2.078 2.083 2.083 0 0 1-2.087-2.08zm369.123-2.04a3.827 3.827 0 1 1 3.827 3.835 3.825 3.825 0 0 1-3.827-3.835zm-322.378 0a3.746 3.746 0 1 1 3.745 3.747 3.746 3.746 0 0 1-3.748-3.748zm-23.3 1.171a2.581 2.581 0 1 1 2.583 2.576 2.586 2.586 0 0 1-2.585-2.576zm319.368-2.789a4.995 4.995 0 1 1 5 4.994 5 5 0 0 1-5.002-4.994zm-104.707-2.461a6.742 6.742 0 1 1 6.743 6.746 6.743 6.743 0 0 1-6.745-6.746zm-166.723 2.461a4.245 4.245 0 1 1 4.247 4.244 4.246 4.246 0 0 1-4.247-4.244zm100.54-2.462a6.66 6.66 0 1 1 6.661 6.659 6.661 6.661 0 0 1-6.661-6.659zm144.323.127a5.494 5.494 0 1 1 5.495 5.495 5.491 5.491 0 0 1-5.491-5.495zm-219.428 0a4.87 4.87 0 1 1 4.869 4.872 4.87 4.87 0 0 1-4.864-4.871zm191.557-3.534a6.034 6.034 0 1 1 6.03 6.035 6.038 6.038 0 0 1-6.026-6.034zm-164.725 0a5.368 5.368 0 1 1 5.368 5.366 5.366 5.366 0 0 1-5.363-5.365zm134.554-5.708a7.117 7.117 0 1 1 7.117 7.119 7.118 7.118 0 0 1-7.113-7.118zm-107.048 0a6.95 6.95 0 1 1 6.951 6.95 6.948 6.948 0 0 1-6.947-6.95zm52.9-7.082a7.657 7.657 0 1 1 7.657 7.661 7.657 7.657 0 0 1-7.653-7.661zm200 1.446a3.538 3.538 0 1 1 3.539 3.538 3.543 3.543 0 0 1-3.536-3.538zm-24.01-.6a4.118 4.118 0 1 1 4.119 4.122 4.118 4.118 0 0 1-4.116-4.127zm47.679 1.054a2.955 2.955 0 1 1 2.955 2.957 2.954 2.954 0 0 1-2.952-2.962zm-72.2-1.895a4.746 4.746 0 1 1 4.744 4.751 4.74 4.74 0 0 1-4.746-4.756zm-129.266-2.921a7.656 7.656 0 1 1 7.655 7.655 7.656 7.656 0 0 1-7.654-7.659zm224.83 5.159a2.416 2.416 0 1 1 2.415 2.415 2.414 2.414 0 0 1-2.414-2.419zm-268.979-5.159a7.408 7.408 0 1 1 7.408 7.409 7.411 7.411 0 0 1-7.408-7.413zm-169.106 4.362a2.831 2.831 0 1 1 2.829 2.833 2.831 2.831 0 0 1-2.829-2.833zm22.849-.6a3.412 3.412 0 1 1 3.413 3.416 3.412 3.412 0 0 1-3.413-3.42zm-45.392 1.052a2.289 2.289 0 1 1 2.289 2.292 2.288 2.288 0 0 1-2.289-2.296zm339.9-3.109a5.368 5.368 0 1 1 5.369 5.372 5.368 5.368 0 0 1-5.367-5.376zm-362.22 3.45a1.789 1.789 0 1 1 1.79 1.791 1.789 1.789 0 0 1-1.79-1.791zm91.029-2.238a3.995 3.995 0 1 1 3.994 4 3.994 3.994 0 0 1-3.995-4.001zm23.912-1.217a4.62 4.62 0 1 1 4.62 4.623 4.618 4.618 0 0 1-4.621-4.623zm221.154-1.854a6.037 6.037 0 1 1 6.038 6.033 6.034 6.034 0 0 1-6.039-6.033zm-196.938 0a5.868 5.868 0 1 1 5.871 5.869 5.871 5.871 0 0 1-5.872-5.868zm169.045-3.023a7.116 7.116 0 1 1 7.117 7.114 7.118 7.118 0 0 1-7.118-7.113zm-142.815 0a6.451 6.451 0 1 1 6.45 6.453 6.448 6.448 0 0 1-6.455-6.452zm113.625-5.394a7.45 7.45 0 1 1 7.45 7.447 7.453 7.453 0 0 1-7.451-7.446zm-85.27 0a6.95 6.95 0 1 1 6.951 6.947 6.951 6.951 0 0 1-6.952-6.946zm52.477-10.93a8.532 8.532 0 1 1 8.532 8.538 8.53 8.53 0 0 1-8.533-8.538zm-22.3 0a8.491 8.491 0 1 1 8.489 8.489 8.485 8.485 0 0 1-8.492-8.488zm149.148 1.777a5.742 5.742 0 1 1 5.741 5.744 5.742 5.742 0 0 1-5.744-5.743zm-24.523-.8a6.451 6.451 0 1 1 6.454 6.45 6.45 6.45 0 0 1-6.457-6.446zm-25.346-1.315A7.117 7.117 0 1 1 341.63 328a7.113 7.113 0 0 1-7.117-7.122zm-219.765 2.116a4.911 4.911 0 1 1 4.913 4.911 4.913 4.913 0 0 1-4.913-4.911zm294.249.52a4.369 4.369 0 1 1 4.371 4.368A4.374 4.374 0 0 1 409 323.51zm-271.1-1.317a5.576 5.576 0 1 1 5.575 5.576 5.577 5.577 0 0 1-5.575-5.576zm-45.731 1.317a4.246 4.246 0 1 1 4.247 4.244 4.245 4.245 0 0 1-4.247-4.244zm340.321.359a3.745 3.745 0 1 1 3.743 3.742 3.746 3.746 0 0 1-3.743-3.742zm-362.558 0a3.621 3.621 0 1 1 3.621 3.619 3.622 3.622 0 0 1-3.621-3.619zm385.724.255a3.164 3.164 0 1 1 3.164 3.162 3.166 3.166 0 0 1-3.164-3.162zm-293.74-3.245a6.243 6.243 0 1 1 6.244 6.246 6.246 6.246 0 0 1-6.244-6.246zm-113.944 3.245a3 3 0 1 1 3 3 3 3 0 0 1-3-3zm430.651.192a2.579 2.579 0 1 1 2.58 2.582 2.582 2.582 0 0 1-2.58-2.582zm-452.451 0a2.414 2.414 0 1 1 2.414 2.418 2.413 2.413 0 0 1-2.414-2.419zm-21.729.144a1.915 1.915 0 1 1 1.915 1.917 1.916 1.916 0 0 1-1.915-1.918zm303.4-5.945a7.7 7.7 0 1 1 7.7 7.7 7.7 7.7 0 0 1-7.701-7.701zm-120.5 0a6.908 6.908 0 1 1 6.909 6.9 6.907 6.907 0 0 1-6.914-6.9zm91.519-4.942a8.2 8.2 0 1 1 8.2 8.2 8.2 8.2 0 0 1-8.205-8.2zm-64.242 0a8.116 8.116 0 1 1 8.115 8.116 8.117 8.117 0 0 1-8.119-8.116zm31.041-12.825a9.239 9.239 0 1 1 9.238 9.24 9.236 9.236 0 0 1-9.242-9.24zm100.438.723a6.742 6.742 0 1 1 6.743 6.743 6.745 6.745 0 0 1-6.742-6.743zm-24.373-.723a7.45 7.45 0 1 1 7.45 7.452 7.45 7.45 0 0 1-7.454-7.452zm-26.461-1.535a8.909 8.909 0 1 1 8.911 8.909 8.909 8.909 0 0 1-8.914-8.909zm-121.97 1.535a7.326 7.326 0 1 1 7.325 7.327 7.325 7.325 0 0 1-7.328-7.327zm-22.872.723a6.534 6.534 0 1 1 6.529 6.529 6.533 6.533 0 0 1-6.532-6.529zm219.418.394a5.952 5.952 0 1 1 5.953 5.952 5.95 5.95 0 0 1-5.957-5.952zm23.241.241a5.244 5.244 0 1 1 5.246 5.243 5.245 5.245 0 0 1-5.25-5.243zm-195.534-2.893a8.074 8.074 0 1 1 8.074 8.076 8.072 8.072 0 0 1-8.078-8.076zm-68.662 2.652a5.12 5.12 0 1 1 5.12 5.123 5.118 5.118 0 0 1-5.123-5.123zm287.166.4a4.536 4.536 0 1 1 4.537 4.54 4.535 4.535 0 0 1-4.54-4.544zm-308.994-.155a4.412 4.412 0 1 1 4.412 4.414 4.414 4.414 0 0 1-4.415-4.418zm331.747.261a3.87 3.87 0 1 1 3.87 3.871 3.867 3.867 0 0 1-3.875-3.875zm-353.345-.11a3.745 3.745 0 1 1 3.745 3.745 3.743 3.743 0 0 1-3.745-3.745zm375.925.184a3.246 3.246 0 1 1 3.244 3.247 3.243 3.243 0 0 1-3.244-3.247zM64 302.368a3.122 3.122 0 1 1 3.121 3.119A3.122 3.122 0 0 1 64 302.368zm419.833.132a2.664 2.664 0 1 1 2.663 2.666 2.661 2.661 0 0 1-2.666-2.666zm-441.21-.052a2.539 2.539 0 1 1 2.539 2.535 2.541 2.541 0 0 1-2.542-2.535zm-21.326.052a2 2 0 1 1 2 2 2 2 0 0 1-2.003-2zm245.676-7.5a9.364 9.364 0 1 1 9.364 9.364 9.363 9.363 0 0 1-9.364-9.364zM0 302.544a1.5 1.5 0 1 1 1.5 1.5 1.5 1.5 0 0 1-1.5-1.5zM224.711 295a8.74 8.74 0 1 1 8.742 8.736 8.741 8.741 0 0 1-8.742-8.736zm57.954-15.7a9.367 9.367 0 1 1 9.367 9.361 9.368 9.368 0 0 1-9.367-9.352zm24.144.555a8.533 8.533 0 1 1 8.535 8.532 8.536 8.536 0 0 1-8.535-8.523zm23.274.2a7.659 7.659 0 1 1 7.657 7.657 7.659 7.659 0 0 1-7.657-7.647zm-120.65-.756a8.324 8.324 0 1 1 8.322 8.322 8.324 8.324 0 0 1-8.322-8.312zm-22.478.555a7.491 7.491 0 1 1 7.491 7.493 7.492 7.492 0 0 1-7.49-7.483zm165.938.289a6.867 6.867 0 1 1 6.867 6.87 6.863 6.863 0 0 1-6.867-6.859zm-187.505-.089a6.66 6.66 0 1 1 6.66 6.657 6.661 6.661 0 0 1-6.66-6.646zm90.114-3.631a10.112 10.112 0 1 1 10.114 10.114 10.113 10.113 0 0 1-10.116-10.104zm-21.277 0a9.947 9.947 0 1 1 9.948 9.947 9.945 9.945 0 0 1-9.949-9.937zm141.249 3.773a6.12 6.12 0 1 1 6.122 6.116 6.12 6.12 0 0 1-6.122-6.106zm-231.357-.052a5.91 5.91 0 1 1 5.91 5.91 5.912 5.912 0 0 1-5.91-5.9zm253.822.082a5.371 5.371 0 1 1 5.372 5.369 5.371 5.371 0 0 1-5.372-5.359zm-274.946-.029a5.2 5.2 0 1 1 5.205 5.2 5.205 5.205 0 0 1-5.205-5.191zm297.349.047a4.62 4.62 0 1 1 4.62 4.623 4.621 4.621 0 0 1-4.62-4.614zm-318.32-.017a4.454 4.454 0 1 1 4.456 4.453 4.455 4.455 0 0 1-4.456-4.444zm340.592.033a3.954 3.954 0 1 1 3.951 3.951 3.953 3.953 0 0 1-3.951-3.942zm-361.576-.016a3.787 3.787 0 1 1 3.788 3.788 3.787 3.787 0 0 1-3.788-3.779zm383.772.026a3.329 3.329 0 1 1 3.33 3.329 3.328 3.328 0 0 1-3.33-3.321zm-404.753-.009a3.163 3.163 0 1 1 3.163 3.164 3.163 3.163 0 0 1-3.163-3.156zm426.929.016a2.705 2.705 0 1 1 2.706 2.7 2.707 2.707 0 0 1-2.706-2.692zm-447.917-.007a2.58 2.58 0 1 1 2.58 2.578 2.579 2.579 0 0 1-2.58-2.57zm-21.009.007a2.038 2.038 0 1 1 2.039 2.04 2.039 2.039 0 0 1-2.039-2.032zm248.329-22.418a9.947 9.947 0 1 1 9.947 9.945 9.947 9.947 0 0 1-9.947-9.937zm-21.359 0a9.864 9.864 0 1 1 9.864 9.863 9.863 9.863 0 0 1-9.864-9.855zm43.511 0a9.24 9.24 0 1 1 9.237 9.237 9.238 9.238 0 0 1-9.236-9.229zm-64.2 0a9.115 9.115 0 1 1 9.117 9.113 9.119 9.119 0 0 1-9.121-9.105zm86.392 0a8.492 8.492 0 1 1 8.492 8.486 8.491 8.491 0 0 1-8.496-8.478zm-107 0a8.281 8.281 0 1 1 8.282 8.28 8.284 8.284 0 0 1-8.287-8.272zm129.276 0a7.657 7.657 0 1 1 7.66 7.654 7.66 7.66 0 0 1-7.669-7.646zm-149.884 0a7.449 7.449 0 1 1 7.45 7.448 7.449 7.449 0 0 1-7.455-7.44zm172.115 0a6.867 6.867 0 1 1 6.867 6.867 6.87 6.87 0 0 1-6.872-6.859zm-192.766 0a6.659 6.659 0 1 1 6.659 6.657 6.66 6.66 0 0 1-6.665-6.649zm214.959 0a6.118 6.118 0 1 1 6.117 6.117 6.12 6.12 0 0 1-6.122-6.109zm-235.653 0a5.91 5.91 0 1 1 5.911 5.908 5.914 5.914 0 0 1-5.916-5.9zm257.886 0a5.328 5.328 0 1 1 5.328 5.325 5.329 5.329 0 0 1-5.333-5.317zm-278.577 0a5.16 5.16 0 1 1 5.161 5.158 5.161 5.161 0 0 1-5.167-5.15zm300.731 0a4.619 4.619 0 1 1 4.62 4.62 4.62 4.62 0 0 1-4.626-4.613zm-321.466 0a4.452 4.452 0 1 1 4.452 4.453 4.453 4.453 0 0 1-4.458-4.445zm343.569 0a3.955 3.955 0 1 1 3.955 3.951 3.957 3.957 0 0 1-3.961-3.943zm-364.345 0a3.788 3.788 0 1 1 3.788 3.787 3.787 3.787 0 0 1-3.794-3.779zm386.413 0a3.332 3.332 0 1 1 3.329 3.33 3.332 3.332 0 0 1-3.334-3.323zm-407.235 0a3.164 3.164 0 1 1 3.164 3.164 3.164 3.164 0 0 1-3.169-3.156zm429.3 0a2.7 2.7 0 1 1 2.7 2.7 2.7 2.7 0 0 1-2.704-2.692zm-450.16 0a2.581 2.581 0 1 1 2.583 2.58 2.583 2.583 0 0 1-2.587-2.573zm-20.9 0a2.039 2.039 0 1 1 2.04 2.036 2.04 2.04 0 0 1-2.044-2.028zm239.464-18.564a9.157 9.157 0 1 1 9.157 9.157 9.156 9.156 0 0 1-9.157-9.157zm-21.4 0a9.114 9.114 0 1 1 9.114 9.115 9.114 9.114 0 0 1-9.114-9.11zm48.234-2.874a8.739 8.739 0 1 1 8.739 8.742 8.742 8.742 0 0 1-8.739-8.741zm-73.488 0a7.949 7.949 0 1 1 7.947 7.949 7.947 7.947 0 0 1-7.947-7.948zm97.418-.558a8.116 8.116 0 1 1 8.118 8.116 8.117 8.117 0 0 1-8.118-8.115zm23.107-.2a7.408 7.408 0 1 1 7.408 7.408 7.407 7.407 0 0 1-7.408-7.404zm-143.084.2a7.2 7.2 0 1 1 7.2 7.2 7.2 7.2 0 0 1-7.2-7.198zm165.857-.29a6.658 6.658 0 1 1 6.658 6.657 6.66 6.66 0 0 1-6.662-6.655zm-187.55.093a6.493 6.493 0 1 1 6.494 6.49 6.494 6.494 0 0 1-6.494-6.488zm210.13-.142a5.909 5.909 0 1 1 5.91 5.908 5.909 5.909 0 0 1-5.91-5.906zm-231.443.049a5.786 5.786 0 1 1 5.785 5.783 5.785 5.785 0 0 1-5.785-5.781zm253.827-.083a5.244 5.244 0 1 1 5.245 5.246 5.243 5.243 0 0 1-5.245-5.244zm-274.95.032a5.077 5.077 0 1 1 5.082 5.078 5.078 5.078 0 0 1-5.082-5.075zm297.308-.049a4.535 4.535 0 1 1 4.535 4.535 4.537 4.537 0 0 1-4.535-4.533zm-318.319.017a4.369 4.369 0 1 1 4.371 4.371 4.369 4.369 0 0 1-4.371-4.369zm340.59-.029a3.872 3.872 0 1 1 3.87 3.87 3.87 3.87 0 0 1-3.867-3.868zm-361.618.012a3.746 3.746 0 1 1 3.746 3.745 3.745 3.745 0 0 1-3.746-3.743zm383.814-.025a3.247 3.247 0 1 1 3.247 3.247 3.247 3.247 0 0 1-3.247-3.244zm-404.793.014a3.121 3.121 0 1 1 3.122 3.12 3.122 3.122 0 0 1-3.122-3.12zm426.925-.017a2.665 2.665 0 1 1 2.669 2.661 2.666 2.666 0 0 1-2.67-2.661zm-447.914.008a2.54 2.54 0 1 1 2.541 2.536 2.542 2.542 0 0 1-2.542-2.535zm-20.966-.008A1.955 1.955 0 1 1 20.1 237.4a1.956 1.956 0 0 1-1.956-1.954zm249.868-14.719a8.324 8.324 0 1 1 8.322 8.323 8.322 8.322 0 0 1-8.323-8.323zm-42.509 0a7.95 7.95 0 1 1 7.95 7.949 7.949 7.949 0 0 1-7.954-7.949zm70.593-4.209a8.076 8.076 0 1 1 8.074 8.074 8.074 8.074 0 0 1-8.071-8.073zm-97.928 0a7.45 7.45 0 1 1 7.449 7.451 7.45 7.45 0 0 1-7.449-7.451zm48.444-1.537a8.282 8.282 0 1 1 8.282 8.283 8.282 8.282 0 0 1-8.282-8.283zm75.609 0a6.951 6.951 0 1 1 6.953 6.95 6.953 6.953 0 0 1-6.954-6.95zm-148.429 0a6.824 6.824 0 1 1 6.823 6.825 6.826 6.826 0 0 1-6.823-6.825zm172.716-.72a6.327 6.327 0 1 1 6.327 6.324 6.327 6.327 0 0 1-6.327-6.324zm-195.715 0a6.159 6.159 0 1 1 6.158 6.157 6.159 6.159 0 0 1-6.158-6.156zm219.336-.4a5.66 5.66 0 1 1 5.662 5.659 5.665 5.665 0 0 1-5.662-5.655zm-241 0a4.869 4.869 0 1 1 4.87 4.873 4.872 4.872 0 0 1-4.869-4.869zm264.195-.242a4.994 4.994 0 1 1 5 5 4.994 4.994 0 0 1-4.999-4.996zm22.932-.155a4.327 4.327 0 1 1 4.328 4.328 4.329 4.329 0 0 1-4.327-4.324zm-308.951.158a4.162 4.162 0 1 1 4.163 4.161 4.164 4.164 0 0 1-4.163-4.157zm331.616-.265a3.745 3.745 0 1 1 3.747 3.745 3.747 3.747 0 0 1-3.746-3.741zm-353.3.107a3.579 3.579 0 1 1 3.579 3.581 3.579 3.579 0 0 1-3.578-3.577zm375.885-.184a3.122 3.122 0 1 1 3.123 3.123 3.124 3.124 0 0 1-3.122-3.119zm-397.345.077a2.956 2.956 0 1 1 2.955 2.956 2.953 2.953 0 0 1-2.954-2.952zm419.794-.134a2.538 2.538 0 1 1 2.537 2.542 2.538 2.538 0 0 1-2.536-2.538zm-441.169.06a2.372 2.372 0 1 1 2.372 2.37 2.372 2.372 0 0 1-2.371-2.366zm-21.409-.061a1.914 1.914 0 1 1 1.916 1.916 1.914 1.914 0 0 1-1.915-1.912zm-21.3-.042A1.417 1.417 0 1 1 1.5 214.6a1.417 1.417 0 0 1-1.417-1.416zm278.9-11.026a8.073 8.073 0 1 1 8.073 8.074 8.076 8.076 0 0 1-8.068-8.07zm-64.2 0a7.949 7.949 0 1 1 7.949 7.949 7.949 7.949 0 0 1-7.945-7.945zm93.848-4.941a6.911 6.911 0 1 1 6.912 6.91 6.911 6.911 0 0 1-6.908-6.906zm-120.666 0a6.285 6.285 0 1 1 6.284 6.286 6.284 6.284 0 0 1-6.279-6.281zm70.608-2.7a7.492 7.492 0 1 1 7.493 7.49 7.492 7.492 0 0 1-7.488-7.484zm-22.3 0a7.449 7.449 0 1 1 7.449 7.448 7.448 7.448 0 0 1-7.441-7.442zm98.9.329a6.45 6.45 0 1 1 6.449 6.453 6.448 6.448 0 0 1-6.436-6.447zm-172.764 0a5.743 5.743 0 1 1 5.743 5.745 5.743 5.743 0 0 1-5.73-5.739zm198.025-1.309a5.868 5.868 0 1 1 5.87 5.868 5.871 5.871 0 0 1-5.857-5.862zm-222.125 0a5.16 5.16 0 1 1 5.16 5.159 5.16 5.16 0 0 1-5.147-5.15zm246.522-.8a5.287 5.287 0 1 1 5.287 5.285 5.288 5.288 0 0 1-5.274-5.275zm-269.711 0a4.536 4.536 0 1 1 4.538 4.538 4.537 4.537 0 0 1-4.525-4.529zm294.167-.521a4.079 4.079 0 1 1 4.082 4.082 4.08 4.08 0 0 1-4.069-4.073zm-316.79 0a3.912 3.912 0 1 1 3.911 3.912 3.912 3.912 0 0 1-3.903-3.902zm340.233-.357a3.5 3.5 0 1 1 3.494 3.494 3.494 3.494 0 0 1-3.481-3.484zm-362.515 0a3.33 3.33 0 1 1 3.332 3.329 3.332 3.332 0 0 1-3.319-3.319zm385.685-.259a2.914 2.914 0 1 1 2.913 2.913 2.91 2.91 0 0 1-2.9-2.908zm-407.728 0a2.788 2.788 0 1 1 2.789 2.789 2.787 2.787 0 0 1-2.776-2.784zm430.651-.19a2.372 2.372 0 1 1 2.372 2.373 2.373 2.373 0 0 1-2.359-2.363zm-452.5 0a2.248 2.248 0 1 1 2.248 2.248 2.248 2.248 0 0 1-2.231-2.237zm-21.729-.147a1.749 1.749 0 1 1 1.75 1.749 1.749 1.749 0 0 1-1.733-1.738zm285.848-7.68a7.325 7.325 0 1 1 7.327 7.323 7.329 7.329 0 0 1-7.31-7.312zm-85.272 0a6.826 6.826 0 1 1 6.826 6.824 6.826 6.826 0 0 1-6.809-6.813zm115.208-5.4a6.244 6.244 0 1 1 6.244 6.244 6.245 6.245 0 0 1-6.227-6.231zm-142.978 0a5.744 5.744 0 1 1 5.742 5.743 5.743 5.743 0 0 1-5.725-5.73zm93.019-3.172a6.661 6.661 0 1 1 6.661 6.66 6.662 6.662 0 0 1-6.644-6.647zm-44.23 0a6.492 6.492 0 1 1 6.492 6.491 6.494 6.494 0 0 1-6.476-6.478zm121.875.15a5.371 5.371 0 1 1 5.375 5.369 5.372 5.372 0 0 1-5.358-5.356zm-196.98 0a5.244 5.244 0 1 1 5.245 5.245 5.243 5.243 0 0 1-5.224-5.232zm97.14-3.073a6.66 6.66 0 1 1 6.659 6.661 6.657 6.657 0 0 1-6.641-6.644zm125.8 1.22a4.87 4.87 0 1 1 4.872 4.869 4.871 4.871 0 0 1-4.854-4.857zm-247.318 0a4.162 4.162 0 1 1 4.161 4.162 4.162 4.162 0 0 1-4.142-4.151zm272.462-1.203a4.287 4.287 0 1 1 4.286 4.286 4.287 4.287 0 0 1-4.286-4.286zm-296.488 0a3.663 3.663 0 1 1 3.662 3.661 3.665 3.665 0 0 1-3.661-3.661zm320.927-.842a3.745 3.745 0 1 1 3.746 3.742 3.746 3.746 0 0 1-3.748-3.743zm-344.238 0a3.08 3.08 0 1 1 3.081 3.08 3.079 3.079 0 0 1-3.081-3.081zm368.21-.6a3.2 3.2 0 1 1 3.2 3.2 3.206 3.206 0 0 1-3.2-3.204zm-391.141 0a2.58 2.58 0 1 1 2.578 2.579 2.58 2.58 0 0 1-2.578-2.583zM471.2 170.2a2.664 2.664 0 1 1 2.664 2.663 2.664 2.664 0 0 1-2.664-2.663zm-437.31 0a2.04 2.04 0 1 1 2.042 2.042 2.04 2.04 0 0 1-2.045-2.042zm460.588-.341a2.206 2.206 0 1 1 2.208 2.2 2.207 2.207 0 0 1-2.211-2.198zm-482.948 0a1.581 1.581 0 1 1 1.581 1.582 1.582 1.582 0 0 1-1.584-1.58zm290.73-4.844a6.243 6.243 0 1 1 6.244 6.244 6.243 6.243 0 0 1-6.247-6.242zm-107.128 0a6.161 6.161 0 1 1 6.161 6.16 6.159 6.159 0 0 1-6.164-6.158zm136.6-5.705a5.867 5.867 0 1 1 5.864 5.868 5.867 5.867 0 0 1-5.872-5.866zm-164.769 0a5.245 5.245 0 1 1 5.244 5.245 5.244 5.244 0 0 1-5.252-5.243zM282.2 155.9a5.825 5.825 0 1 1 5.826 5.826 5.825 5.825 0 0 1-5.826-5.826zm-66.22 0a5.785 5.785 0 1 1 5.786 5.786 5.784 5.784 0 0 1-5.787-5.786zm144.075-.128a4.869 4.869 0 1 1 4.866 4.869 4.867 4.867 0 0 1-4.867-4.867zm-219.431 0a4.246 4.246 0 1 1 4.246 4.244 4.246 4.246 0 0 1-4.247-4.241zm245.989-2.335a4.371 4.371 0 1 1 4.374 4.371 4.372 4.372 0 0 1-4.375-4.368zm-271.552 0a3.746 3.746 0 1 1 3.746 3.745 3.745 3.745 0 0 1-3.747-3.742zm145.133-2.2a5.909 5.909 0 1 1 5.908 5.911 5.908 5.908 0 0 1-5.909-5.909zm-22.419 0a5.912 5.912 0 1 1 5.911 5.911 5.911 5.911 0 0 1-5.912-5.909zm174.937.584a3.412 3.412 0 1 1 3.413 3.411 3.413 3.413 0 0 1-3.413-3.409zm-322.3 0a3.247 3.247 0 1 1 3.247 3.244 3.246 3.246 0 0 1-3.243-3.242zm347.3-1.168a2.872 2.872 0 1 1 2.873 2.873 2.874 2.874 0 0 1-2.87-2.872zm-370.8 0a2.289 2.289 0 1 1 2.287 2.287 2.289 2.289 0 0 1-2.286-2.283zm395.252-.872a2.372 2.372 0 1 1 2.372 2.375 2.375 2.375 0 0 1-2.371-2.371zm-148.521-3.336a5.577 5.577 0 1 1 5.577 5.576 5.577 5.577 0 0 1-5.575-5.572zm-270.221 3.339a1.831 1.831 0 1 1 1.83 1.832 1.831 1.831 0 0 1-1.83-1.832zm141.985-3.336a5.162 5.162 0 1 1 5.164 5.161 5.162 5.162 0 0 1-5.164-5.161zm300.77 2.675a1.915 1.915 0 1 1 1.913 1.916 1.914 1.914 0 0 1-1.913-1.917zm-465.9 0a1.415 1.415 0 1 1 1.414 1.416 1.414 1.414 0 0 1-1.409-1.418zm322.951-8.606a5.244 5.244 0 1 1 5.243 5.245 5.243 5.243 0 0 1-5.238-5.247zm-186.622 0a4.7 4.7 0 1 1 4.7 4.7 4.7 4.7 0 0 1-4.696-4.702zm137.166-3.546a5.121 5.121 0 1 1 5.119 5.121 5.12 5.12 0 0 1-5.115-5.123zm-87.751 0a4.87 4.87 0 1 1 4.868 4.872 4.867 4.867 0 0 1-4.864-4.875zm166.294-.4a3.871 3.871 0 1 1 3.873 3.87 3.869 3.869 0 0 1-3.869-3.87zm-242.05 0a3.331 3.331 0 1 1 3.332 3.33 3.331 3.331 0 0 1-3.328-3.33zm269-2.752a3.456 3.456 0 1 1 3.456 3.456 3.453 3.453 0 0 1-3.449-3.456zm-295.079 0a2.871 2.871 0 1 1 2.87 2.873 2.87 2.87 0 0 1-2.864-2.872zm167.838-2.654a5.2 5.2 0 1 1 5.205 5.2 5.2 5.2 0 0 1-5.199-5.199zm-44.552 0a5.078 5.078 0 1 1 5.077 5.078 5.077 5.077 0 0 1-5.071-5.077zm197.888.665a3 3 0 1 1 3 2.995 3 3 0 0 1-2.994-2.993zm-175.632-2.62a5.161 5.161 0 1 1 5.161 5.161 5.16 5.16 0 0 1-5.155-5.159zm-170.761 2.62a2.455 2.455 0 1 1 2.454 2.456 2.454 2.454 0 0 1-2.449-2.454zm371.762-1.483a2.58 2.58 0 1 1 2.579 2.579 2.579 2.579 0 0 1-2.573-2.577zm-125.412-2.47a4.62 4.62 0 1 1 4.62 4.62 4.619 4.619 0 0 1-4.614-4.618zm-150.01 0a4.537 4.537 0 1 1 4.535 4.537 4.534 4.534 0 0 1-4.529-4.535zm-120.828 2.471a2 2 0 1 1 2 2 2 2 0 0 1-2-2zm421.541-1.136a1.706 1.706 0 1 1 1.709 1.708 1.706 1.706 0 0 1-1.71-1.708zm-445.539 0a1.581 1.581 0 1 1 1.582 1.582 1.583 1.583 0 0 1-1.583-1.581zm-23.611-.889a1.208 1.208 0 1 1 1.207 1.205 1.207 1.207 0 0 1-1.208-1.204zm348.206-6.546a4.245 4.245 0 1 1 4.243 4.243 4.244 4.244 0 0 1-4.244-4.243zm-208.351 0a3.746 3.746 0 1 1 3.745 3.745 3.746 3.746 0 0 1-3.746-3.746zm158.1-3.63a4.911 4.911 0 1 1 4.911 4.911 4.912 4.912 0 0 1-4.916-4.911zm-109.632 0a4.871 4.871 0 1 1 4.87 4.869 4.869 4.869 0 0 1-4.874-4.87zm188.266-.647a3.871 3.871 0 1 1 3.867 3.87 3.87 3.87 0 0 1-3.871-3.87zm-264.318 0a3.329 3.329 0 1 1 3.328 3.33 3.33 3.33 0 0 1-3.332-3.33zm292.524-3.11a2.579 2.579 0 1 1 2.579 2.58 2.579 2.579 0 0 1-2.583-2.582zm-318.609 0a2.5 2.5 0 1 1 2.5 2.494 2.5 2.5 0 0 1-2.504-2.493zm190.831-2.858a4.41 4.41 0 1 1 4.408 4.411 4.409 4.409 0 0 1-4.412-4.41zm-66.757 0a4.37 4.37 0 1 1 4.37 4.368 4.368 4.368 0 0 1-4.374-4.367zm220.96.531a2.205 2.205 0 1 1 2.206 2.206 2.205 2.205 0 0 1-2.21-2.205zm-370.3 0a1.707 1.707 0 1 1 1.708 1.707 1.708 1.708 0 0 1-1.712-1.706zm268.884-2.754a3.994 3.994 0 1 1 4 3.995 4 4 0 0 1-4.005-3.994zm-171.206 0a3.663 3.663 0 1 1 3.663 3.666 3.663 3.663 0 0 1-3.668-3.667zm96.194-1.119a4.453 4.453 0 1 1 4.452 4.455 4.454 4.454 0 0 1-4.457-4.456zm-22.43 0a4.453 4.453 0 1 1 4.451 4.455 4.451 4.451 0 0 1-4.457-4.456zm224.648 2.09a1.791 1.791 0 1 1 1.792 1.789 1.79 1.79 0 0 1-1.797-1.79zm-421.084 0a1.331 1.331 0 1 1 1.331 1.334 1.332 1.332 0 0 1-1.336-1.335zm446.28-1.394a1.417 1.417 0 1 1 1.418 1.415 1.417 1.417 0 0 1-1.423-1.416zm-470.77 0a1 1 0 1 1 1 1 1 1 0 0 1-1.006-1.002zm348.088-5.813a3.746 3.746 0 1 1 3.744 3.744 3.745 3.745 0 0 1-3.75-3.746zm-229.978 0a3.246 3.246 0 1 1 3.246 3.247 3.245 3.245 0 0 1-3.252-3.247zm179.881-3.687a4.246 4.246 0 1 1 4.246 4.246 4.247 4.247 0 0 1-4.252-4.246zm-130.956 0a3.913 3.913 0 1 1 3.912 3.912 3.912 3.912 0 0 1-3.918-3.913zm210.035-.867a3 3 0 1 1 3 3 3 3 0 0 1-3.005-3.001zm-286.448 0a2.5 2.5 0 1 1 2.5 2.5 2.5 2.5 0 0 1-2.505-2.498zM423.017 95.1a2.579 2.579 0 1 1 2.581 2.579 2.58 2.58 0 0 1-2.581-2.579zm-340.9 0a2.081 2.081 0 1 1 2.081 2.079 2.081 2.081 0 0 1-2.085-2.079zm213.432-2.927a3.746 3.746 0 1 1 3.745 3.745 3.745 3.745 0 0 1-3.749-3.744zm-88.626 0a3.579 3.579 0 1 1 3.578 3.578 3.581 3.581 0 0 1-3.582-3.577zm243.251.3A1.83 1.83 0 1 1 452 94.3a1.83 1.83 0 0 1-1.83-1.827zM348.22 90.742a3.164 3.164 0 1 1 3.164 3.162 3.164 3.164 0 0 1-3.164-3.162zM56.374 92.473a1.415 1.415 0 1 1 1.414 1.416 1.414 1.414 0 0 1-1.414-1.416zm98.952-1.731a3.079 3.079 0 1 1 3.081 3.079 3.079 3.079 0 0 1-3.081-3.079zM273.5 87.8a3.788 3.788 0 1 1 3.785 3.788A3.786 3.786 0 0 1 273.5 87.8zm203.072 2.615a1.165 1.165 0 1 1 1.168 1.166 1.167 1.167 0 0 1-1.169-1.17zM228.757 87.8a3.745 3.745 0 1 1 3.746 3.748 3.746 3.746 0 0 1-3.746-3.748zM30.97 90.411a1.083 1.083 0 1 1 1.084 1.081 1.084 1.084 0 0 1-1.084-1.081zm220.136-4.082a3.788 3.788 0 1 1 3.787 3.787 3.788 3.788 0 0 1-3.787-3.788zM6.076 88.763a.791.791 0 1 1 .79.79.79.79 0 0 1-.79-.79zM378.1 84.395a2.829 2.829 0 1 1 2.828 2.83 2.828 2.828 0 0 1-2.828-2.83zm-251.693 0a2.455 2.455 0 1 1 2.454 2.455 2.455 2.455 0 0 1-2.455-2.45zm201.51-3.727a3.412 3.412 0 1 1 3.413 3.411 3.413 3.413 0 0 1-3.414-3.41zm-152.786 0A3.33 3.33 0 1 1 178.46 84a3.329 3.329 0 0 1-3.33-3.331zm231.682-1.058a2.538 2.538 0 1 1 2.534 2.539 2.537 2.537 0 0 1-2.534-2.539zm-308.458 0a2.082 2.082 0 1 1 2.08 2.082 2.081 2.081 0 0 1-2.08-2.081zM435 75.923a1.833 1.833 0 1 1 1.837 1.831A1.834 1.834 0 0 1 435 75.923zm-363.8 0a1.747 1.747 0 1 1 1.745 1.749 1.746 1.746 0 0 1-1.745-1.75zm236.04-2.93a3 3 0 1 1 3 3 3 3 0 0 1-2.995-3.001zm-110.648 0a2.955 2.955 0 1 1 2.953 2.956 2.955 2.955 0 0 1-2.945-2.956zm162.925-.823a2.582 2.582 0 1 1 2.582 2.582 2.58 2.58 0 0 1-2.578-2.582zm-214.127 0a2.289 2.289 0 1 1 2.289 2.287 2.289 2.289 0 0 1-2.285-2.284zm316.935.849a1.209 1.209 0 1 1 1.206 1.206 1.209 1.209 0 0 1-1.201-1.203zm-416.912 0a.833.833 0 1 1 .831.832.833.833 0 0 1-.826-.831zM488.677 70.7a.917.917 0 1 1 .914.917.919.919 0 0 1-.914-.917zm-469.1 0a.624.624 0 1 1 .624.625.624.624 0 0 1-.629-.625zm265.711-2.884a3.121 3.121 0 1 1 3.119 3.125 3.121 3.121 0 0 1-3.124-3.125zm-67.022 0a3.122 3.122 0 1 1 3.123 3.125 3.123 3.123 0 0 1-3.127-3.125zm44.69-2.6a3.163 3.163 0 1 1 3.164 3.163 3.163 3.163 0 0 1-3.169-3.166zm-22.439 0a3.163 3.163 0 1 1 3.162 3.163 3.161 3.161 0 0 1-3.167-3.166zm149.109.524a2.083 2.083 0 1 1 2.083 2.081 2.084 2.084 0 0 1-2.087-2.085zm-273.537 0a2 2 0 1 1 2 2 2 2 0 0 1-2.005-2.004zm223.191-3.756a2.831 2.831 0 1 1 2.831 2.828 2.828 2.828 0 0 1-2.835-2.831zm-174.173 0a2.58 2.58 0 1 1 2.581 2.579 2.579 2.579 0 0 1-2.588-2.58zm253.4-1.225a1.789 1.789 0 1 1 1.786 1.789 1.787 1.787 0 0 1-1.793-1.79zm-330.41 0a1.415 1.415 0 1 1 1.403 1.414 1.416 1.416 0 0 1-1.412-1.415zM446.5 56.833a1.5 1.5 0 1 1 1.493 1.5 1.5 1.5 0 0 1-1.493-1.5zm-385.818 0a1.123 1.123 0 1 1 1.118 1.121 1.125 1.125 0 0 1-1.123-1.123zm257.477-2.893a3 3 0 1 1 3 3 3 3 0 0 1-3.005-3.002zm-132.309 0a2.788 2.788 0 1 1 2.789 2.791 2.787 2.787 0 0 1-2.794-2.793zm184.606-.34a2.372 2.372 0 1 1 2.37 2.372 2.373 2.373 0 0 1-2.37-2.372zm-235.783 0a2.289 2.289 0 1 1 2.288 2.289 2.288 2.288 0 0 1-2.288-2.289zm339.07.084a1.207 1.207 0 1 1 1.205 1.206 1.2 1.2 0 0 1-1.205-1.204zm-439.737 0a.833.833 0 1 1 .832.832.832.832 0 0 1-.832-.83zm-26.037-2.56a.542.542 0 1 1 .542.541.542.542 0 0 1-.542-.541zm288.966-2.993a2.538 2.538 0 1 1 2.54 2.537 2.541 2.541 0 0 1-2.54-2.536zm-88.994 0a2.373 2.373 0 1 1 2.373 2.372 2.374 2.374 0 0 1-2.374-2.371zm192.873-1.039a1.663 1.663 0 1 1 1.664 1.668 1.662 1.662 0 0 1-1.665-1.668zm-294.836 0a1.333 1.333 0 1 1 1.332 1.334 1.334 1.334 0 0 1-1.333-1.334zm168.751-2.474a2.58 2.58 0 1 1 2.579 2.582 2.582 2.582 0 0 1-2.58-2.582zm-44.785 0a2.539 2.539 0 1 1 2.538 2.536 2.537 2.537 0 0 1-2.539-2.533zm22.371-1.176a2.58 2.58 0 1 1 2.582 2.579 2.581 2.581 0 0 1-2.584-2.576zm98.478-.127a2.083 2.083 0 1 1 2.083 2.081 2.085 2.085 0 0 1-2.084-2.079zm-195.918 0a2.04 2.04 0 1 1 2.04 2.039 2.042 2.042 0 0 1-2.042-2.037zm274.9-1.371a1.415 1.415 0 1 1 1.415 1.415 1.415 1.415 0 0 1-1.42-1.412zm-352.25 0a1.083 1.083 0 1 1 1.075 1.082 1.081 1.081 0 0 1-1.08-1.079zm380.638-4.134a.917.917 0 1 1 .914.914.915.915 0 0 1-.919-.911zm-408.274 0a.832.832 0 1 1 .832.831.83.83 0 0 1-.837-.829zm279.864-2.838a2.289 2.289 0 1 1 2.29 2.287 2.292 2.292 0 0 1-2.295-2.285zm-154.244 0a2.247 2.247 0 1 1 2.248 2.248 2.247 2.247 0 0 1-2.257-2.246zm206.129.058a1.914 1.914 0 1 1 1.913 1.913 1.912 1.912 0 0 1-1.917-1.911zm-256.972 0a1.582 1.582 0 1 1 1.582 1.582 1.581 1.581 0 0 1-1.586-1.58zm360.887-.588a.709.709 0 1 1 .71.705.709.709 0 0 1-.714-.703zm-462.558 0a.541.541 0 1 1 .542.544.54.54 0 0 1-.547-.547zm285.6-5.789a1.914 1.914 0 1 1 1.912 1.913 1.912 1.912 0 0 1-1.917-1.916zm-111.216 0a1.915 1.915 0 1 1 1.916 1.913 1.913 1.913 0 0 1-1.921-1.916zm214.821-.192a1.04 1.04 0 1 1 1.041 1.039 1.037 1.037 0 0 1-1.041-1.039zm-316.651 0a1 1 0 1 1 1 1 1 1 0 0 1-.997-1.002zM286.463 24.4a2 2 0 1 1 2 2 2 2 0 0 1-2-2zm-67.091 0a1.956 1.956 0 1 1 1.956 1.956 1.954 1.954 0 0 1-1.956-1.956zm142.64.268a1.624 1.624 0 1 1 1.624 1.622 1.625 1.625 0 0 1-1.624-1.621zm-217.274 0a1.415 1.415 0 1 1 1.414 1.415 1.414 1.414 0 0 1-1.415-1.415zm119.342-2.4a2.041 2.041 0 1 1 2.041 2.039 2.042 2.042 0 0 1-2.042-2.038zm-22.446 0a2.039 2.039 0 1 1 2.041 2.039 2.041 2.041 0 0 1-2.042-2.038zm199.594.9a.832.832 0 1 1 .831.832.833.833 0 0 1-.832-.831zm-374.12 0a.623.623 0 1 1 .624.624.623.623 0 0 1-.625-.623zm402.339-4.321a.664.664 0 1 1 .662.665.665.665 0 0 1-.663-.664zm-430.3 0a.54.54 0 1 1 .54.541.541.541 0 0 1-.544-.543zm301.965-2.768a1.791 1.791 0 1 1 1.789 1.788 1.791 1.791 0 0 1-1.793-1.789zm51.915.385a1.247 1.247 0 1 1 1.245 1.245 1.246 1.246 0 0 1-1.249-1.246zm-278.709 0a1.207 1.207 0 1 1 1.208 1.206 1.205 1.205 0 0 1-1.212-1.207zm51-.386a1.581 1.581 0 1 1 1.581 1.583 1.582 1.582 0 0 1-1.589-1.584zm331.633-.8a.539.539 0 1 1 .538.541.541.541 0 0 1-.546-.544zm-485.178 0a.541.541 0 1 1 .541.541.542.542 0 0 1-.548-.544zm307.805-5.952a1.914 1.914 0 1 1 1.913 1.914 1.914 1.914 0 0 1-1.913-1.914zm-133.027 0a1.749 1.749 0 1 1 1.75 1.749 1.749 1.749 0 0 1-1.75-1.749zm236.4.512A1.039 1.039 0 1 1 424 10.876a1.043 1.043 0 0 1-1.044-1.038zM85 9.838a.791.791 0 1 1 .789.79.793.793 0 0 1-.789-.79zm288.309-3.806a1.082 1.082 0 1 1 1.082 1.082 1.083 1.083 0 0 1-1.082-1.082zm-238.954 0a1.042 1.042 0 1 1 1.045 1.04 1.04 1.04 0 0 1-1.045-1.039zm163.723-1.561a1.5 1.5 0 1 1 1.5 1.5 1.5 1.5 0 0 1-1.5-1.5zm-89.277 0a1.415 1.415 0 1 1 1.415 1.413A1.416 1.416 0 0 1 208.8 4.47zm243.49-.052a.623.623 0 1 1 .623.624.622.622 0 0 1-.624-.626zm-395.954 0a.541.541 0 1 1 .542.541.54.54 0 0 1-.543-.545zM275.779 1.54a1.539 1.539 0 1 1 1.54 1.54 1.54 1.54 0 0 1-1.54-1.54zm-44.807 0a1.5 1.5 0 1 1 1.5 1.5 1.5 1.5 0 0 1-1.499-1.5z" class="cls-3" data-name="Union 29" transform="rotate(134.03 -113.023 736.541)"/>
        <path id="Union_30" d="M340.488 499.654a2.413 2.413 0 1 1 2.412 2.409 2.407 2.407 0 0 1-2.412-2.409zm-175.8 0a2.205 2.205 0 1 1 2.2 2.2 2.206 2.206 0 0 1-2.203-2.2zm332.051.8a.747.747 0 1 1 .745.748.745.745 0 0 1-.749-.749zm-104.217-1.188a1.749 1.749 0 1 1 1.749 1.747 1.749 1.749 0 0 1-1.753-1.748zm-380.756 1.187a.541.541 0 1 1 .541.538.539.539 0 0 1-.541-.538zm102.048-1.188a1.706 1.706 0 1 1 1.708 1.709 1.7 1.7 0 0 1-1.708-1.709zm355.335-2.385a.958.958 0 1 1 .957.964.962.962 0 0 1-.957-.964zm-430.178 0a.708.708 0 1 1 .708.711.707.707 0 0 1-.708-.711zm224.443-3.421a2.7 2.7 0 1 1 2.7 2.707 2.7 2.7 0 0 1-2.699-2.707zm-22.447 0a2.7 2.7 0 1 1 2.705 2.707 2.706 2.706 0 0 1-2.705-2.707zm44.828-2.134a2.665 2.665 0 1 1 2.669 2.664 2.664 2.664 0 0 1-2.664-2.664zm-67.133 0a2.664 2.664 0 1 1 2.665 2.664 2.66 2.66 0 0 1-2.664-2.664zm222.192 1.235a1.207 1.207 0 1 1 1.206 1.21 1.2 1.2 0 0 1-1.205-1.21zm-374.04 0a.916.916 0 1 1 .916.92.919.919 0 0 1-.915-.921zm294.618-1.495a2.2 2.2 0 1 1 2.2 2.206 2.21 2.21 0 0 1-2.199-2.207zm-217.193 0a1.914 1.914 0 1 1 1.913 1.913 1.91 1.91 0 0 1-1.912-1.914zm163.68-3.992a2.58 2.58 0 1 1 2.579 2.586 2.578 2.578 0 0 1-2.578-2.587zm-111.17 0a2.539 2.539 0 1 1 2.539 2.547 2.538 2.538 0 0 1-2.538-2.548zm214.993.2a1.5 1.5 0 1 1 1.5 1.5 1.5 1.5 0 0 1-1.499-1.503zm-316.609 0a1.415 1.415 0 1 1 1.415 1.415 1.411 1.411 0 0 1-1.414-1.418zm234.491-6.519a2.415 2.415 0 1 1 2.415 2.415 2.416 2.416 0 0 1-2.414-2.418zm-154.245 0a2.372 2.372 0 1 1 2.374 2.375 2.375 2.375 0 0 1-2.373-2.378zm206.17-.052a2 2 0 1 1 2 2 2 2 0 0 1-1.999-2.002zm-257.015 0a1.707 1.707 0 1 1 1.708 1.7 1.708 1.708 0 0 1-1.706-1.702zm360.972.588a.748.748 0 1 1 .75.75.749.749 0 0 1-.748-.753zm-462.518 0a.541.541 0 1 1 .542.54.542.542 0 0 1-.54-.544zm434.835-3.366a1.25 1.25 0 1 1 1.248 1.246 1.25 1.25 0 0 1-1.246-1.25zm-408.317 0a1.207 1.207 0 1 1 1.206 1.205 1.206 1.206 0 0 1-1.204-1.209zm379.8-4.139a1.874 1.874 0 1 1 1.874 1.874 1.876 1.876 0 0 1-1.869-1.878zm-177.743-1.5a3.331 3.331 0 1 1 3.33 3.333 3.331 3.331 0 0 1-3.325-3.334zM77.1 473.781a1.5 1.5 0 1 1 1.5 1.5 1.5 1.5 0 0 1-1.5-1.5zm273.024-1.371a2.747 2.747 0 1 1 2.746 2.749 2.746 2.746 0 0 1-2.743-2.749zm-195.875 0a2.662 2.662 0 1 1 2.662 2.666 2.664 2.664 0 0 1-2.658-2.666zm119.724-1.3a3.33 3.33 0 1 1 3.332 3.33 3.33 3.33 0 0 1-3.328-3.33zm-44.743 0a3.247 3.247 0 1 1 3.247 3.246 3.245 3.245 0 0 1-3.243-3.246zm67-3.514a3.246 3.246 0 1 1 3.25 3.252 3.244 3.244 0 0 1-3.251-3.248zm104.046 1.041a2.205 2.205 0 1 1 2.2 2.206 2.206 2.206 0 0 1-2.201-2.205zM207.193 467.6a3.121 3.121 0 1 1 3.121 3.125 3.12 3.12 0 0 1-3.121-3.125zm-101.675 1.042a1.791 1.791 0 1 1 1.79 1.787 1.795 1.795 0 0 1-1.79-1.79zM7.847 464.6a.665.665 0 1 1 .663.665.663.663 0 0 1-.663-.665zm310.143-2.81a3.164 3.164 0 1 1 3.164 3.16 3.168 3.168 0 0 1-3.164-3.16zm-132.266 0a2.913 2.913 0 1 1 2.913 2.917 2.912 2.912 0 0 1-2.913-2.917zm184.649.337a2.455 2.455 0 1 1 2.452 2.452 2.455 2.455 0 0 1-2.452-2.452zm-235.781 0a2.371 2.371 0 1 1 2.371 2.375 2.37 2.37 0 0 1-2.371-2.375zm339.11-.082a1.246 1.246 0 1 1 1.246 1.247 1.249 1.249 0 0 1-1.248-1.246zm-439.779 0a.915.915 0 1 1 .914.914.914.914 0 0 1-.914-.913zm412.152-3.15a1.915 1.915 0 1 1 1.912 1.916 1.912 1.912 0 0 1-1.913-1.911zM60.3 458.9a1.5 1.5 0 1 1 1.5 1.5 1.5 1.5 0 0 1-1.5-1.5zm278.268-5.151a3.538 3.538 0 1 1 3.538 3.538 3.536 3.536 0 0 1-3.536-3.543zM418 454.973a2.29 2.29 0 1 1 2.288 2.287 2.288 2.288 0 0 1-2.288-2.287zm-253.523-1.228a3.205 3.205 0 1 1 3.205 3.2 3.2 3.2 0 0 1-3.206-3.201zm-76.808 1.229A1.832 1.832 0 1 1 89.5 456.8a1.83 1.83 0 0 1-1.832-1.826zm174.5-4.452a3.953 3.953 0 1 1 3.952 3.949 3.95 3.95 0 0 1-3.958-3.95zm-22.443 0a3.954 3.954 0 1 1 3.954 3.949 3.953 3.953 0 0 1-3.96-3.95zm149.365-.527a2.623 2.623 0 1 1 2.622 2.621 2.621 2.621 0 0 1-2.628-2.622zm-273.585 0a2.58 2.58 0 1 1 2.581 2.579 2.584 2.584 0 0 1-2.587-2.58zm169.034-2.083a3.87 3.87 0 1 1 3.87 3.868 3.87 3.87 0 0 1-3.876-3.869zm-67.023 0a3.871 3.871 0 1 1 3.873 3.868 3.872 3.872 0 0 1-3.879-3.869zm141.308-4.351a3.288 3.288 0 1 1 3.286 3.285 3.288 3.288 0 0 1-3.292-3.286zm-52.325-.824a3.747 3.747 0 1 1 3.748 3.747 3.748 3.748 0 0 1-3.754-3.748zm-110.695 0a3.746 3.746 0 1 1 3.745 3.747 3.746 3.746 0 0 1-3.75-3.748zm-50.986.824a2.87 2.87 0 1 1 2.87 2.872 2.875 2.875 0 0 1-2.876-2.873zm343.572 1.467a1.208 1.208 0 1 1 1.205 1.209 1.212 1.212 0 0 1-1.211-1.21zm-469.02 0a.831.831 0 1 1 .831.832.832.832 0 0 1-.837-.833zm442.594-2.319a1.581 1.581 0 1 1 1.579 1.583 1.579 1.579 0 0 1-1.586-1.583zm-416.83 0a1.123 1.123 0 1 1 1.122 1.123 1.121 1.121 0 0 1-1.129-1.123zm389.8-2.9a1.915 1.915 0 1 1 1.916 1.912 1.918 1.918 0 0 1-1.927-1.913zm-363.8 0a1.831 1.831 0 1 1 1.83 1.829 1.834 1.834 0 0 1-1.841-1.83zm335.105-3.69a3.122 3.122 0 1 1 3.12 3.12 3.123 3.123 0 0 1-3.131-3.121zm-79.021-1.056a4.121 4.121 0 1 1 4.124 4.124 4.121 4.121 0 0 1-4.135-4.126zm-152.829 0a4.079 4.079 0 1 1 4.079 4.075 4.077 4.077 0 0 1-4.09-4.078zm-76.524 1.057a2.58 2.58 0 1 1 2.578 2.579 2.582 2.582 0 0 1-2.588-2.581zm279.58-4.785a3.493 3.493 0 1 1 3.493 3.5 3.493 3.493 0 0 1-3.504-3.502zm-251.572 0a3 3 0 1 1 3 2.993 3 3 0 0 1-3.011-2.995zm124.401-1.935a4.62 4.62 0 1 1 4.62 4.617 4.62 4.62 0 0 1-4.62-4.617zm22.389-1.47a4.62 4.62 0 1 1 4.618 4.624 4.616 4.616 0 0 1-4.618-4.622zm-44.7 0a4.536 4.536 0 1 1 4.536 4.534 4.537 4.537 0 0 1-4.534-4.532zm119.589-2.945a3.83 3.83 0 1 1 3.83 3.832 3.833 3.833 0 0 1-3.829-3.83zm-192.9 0a3.745 3.745 0 1 1 3.746 3.748 3.743 3.743 0 0 1-3.741-3.747zm140.1-1.428a4.536 4.536 0 1 1 4.535 4.538 4.532 4.532 0 0 1-4.532-4.537zM5.825 426.968A1.041 1.041 0 1 1 6.865 428a1.043 1.043 0 0 1-1.04-1.032zm200.343-3.411a4.329 4.329 0 1 1 4.328 4.328 4.332 4.332 0 0 1-4.328-4.328zm270.071 1.762a1.5 1.5 0 1 1 1.5 1.5 1.5 1.5 0 0 1-1.5-1.501zm-445.6 0a1.415 1.415 0 1 1 1.415 1.417 1.411 1.411 0 0 1-1.415-1.418zm419.073-2.063a2.287 2.287 0 1 1 2.288 2.291 2.29 2.29 0 0 1-2.288-2.292zM56 423.26a1.79 1.79 0 1 1 1.789 1.787A1.79 1.79 0 0 1 56 423.26zm366.892-2.634a2.705 2.705 0 1 1 2.706 2.706 2.7 2.7 0 0 1-2.708-2.706zm-340.906 0a2.206 2.206 0 1 1 2.208 2.211 2.205 2.205 0 0 1-2.21-2.211zm234.186-4.281a4.371 4.371 0 1 1 4.368 4.371 4.369 4.369 0 0 1-4.37-4.371zm-131 0a4.078 4.078 0 1 1 4.076 4.071 4.077 4.077 0 0 1-4.075-4.07zm210.079.864a3.12 3.12 0 1 1 3.12 3.121 3.122 3.122 0 0 1-3.119-3.12zm-286.414 0a2.581 2.581 0 1 1 2.582 2.579 2.581 2.581 0 0 1-2.581-2.578zm256.887-4.555a4.412 4.412 0 1 1 4.408 4.415 4.407 4.407 0 0 1-4.406-4.414zm-229.942 0a3.871 3.871 0 1 1 3.871 3.874 3.873 3.873 0 0 1-3.869-3.872zm124.957-5.117a5.367 5.367 0 1 1 5.367 5.37 5.367 5.367 0 0 1-5.365-5.368zm-22.391 0a5.327 5.327 0 1 1 5.328 5.329 5.33 5.33 0 0 1-5.326-5.326zm97.569-1.125a4.743 4.743 0 1 1 4.745 4.748 4.742 4.742 0 0 1-4.743-4.745zm-171.083 0a4.287 4.287 0 1 1 4.287 4.288 4.284 4.284 0 0 1-4.284-4.285zm118.21-2.217a5.246 5.246 0 1 1 5.243 5.24 5.247 5.247 0 0 1-5.24-5.235zm-66.8 0a5.244 5.244 0 1 1 5.244 5.24 5.248 5.248 0 0 1-5.239-5.235zm272.494 2.646a1.747 1.747 0 1 1 1.746 1.746 1.746 1.746 0 0 1-1.74-1.743zm-470.69 0a1.248 1.248 0 1 1 1.252 1.249 1.248 1.248 0 0 1-1.246-1.246zm445.4-1.4a2.208 2.208 0 1 1 2.211 2.2 2.2 2.2 0 0 1-2.202-2.192zm-421 0a1.666 1.666 0 1 1 1.665 1.669 1.664 1.664 0 0 1-1.657-1.661zm395.221-1.781a2.62 2.62 0 1 1 2.619 2.624 2.62 2.62 0 0 1-2.612-2.616zm-370.262 0a2.081 2.081 0 1 1 2.079 2.078 2.076 2.076 0 0 1-2.071-2.071zm343.7-2.327a3.121 3.121 0 1 1 3.123 3.12 3.124 3.124 0 0 1-3.113-3.113zm-318.564 0a3 3 0 1 1 3 3 2.993 2.993 0 0 1-2.99-2.993zm212.1-3.759a5.077 5.077 0 1 1 5.079 5.076 5.078 5.078 0 0 1-5.069-5.069zm-109.59 0a4.994 4.994 0 1 1 4.993 5 5 5 0 0 1-4.983-4.993zm188.265.649a4 4 0 1 1 3.992 4 4 4 0 0 1-3.981-3.993zm-264.317 0a3.454 3.454 0 1 1 3.455 3.456 3.453 3.453 0 0 1-3.445-3.45zm235.313-4.279a4.993 4.993 0 1 1 4.993 4.994 4.994 4.994 0 0 1-4.983-4.987zm-208.225 0a4.37 4.37 0 1 1 4.37 4.371 4.372 4.372 0 0 1-4.359-4.363zm178.477-6.1a5.367 5.367 0 1 1 5.367 5.368 5.367 5.367 0 0 1-5.357-5.363zm-150.014 0a5.286 5.286 0 1 1 5.285 5.286 5.285 5.285 0 0 1-5.274-5.281zm74.215-1.333a6.119 6.119 0 1 1 6.117 6.122 6.116 6.116 0 0 1-6.106-6.117zm22.342-1.951a6.117 6.117 0 1 1 6.117 6.118 6.116 6.116 0 0 1-6.106-6.113zm-44.476 0a5.911 5.911 0 1 1 5.911 5.9 5.912 5.912 0 0 1-5.901-5.895zM6.618 387.405a1.457 1.457 0 1 1 1.458 1.455 1.458 1.458 0 0 1-1.458-1.455zm469.111-.889a2 2 0 1 1 2 2 2 2 0 0 1-1.999-2zm-445.581 0a1.915 1.915 0 1 1 1.917 1.913 1.915 1.915 0 0 1-1.916-1.913zm420.209-1.133a2.955 2.955 0 1 1 2.955 2.952 2.96 2.96 0 0 1-2.954-2.952zm-396.255 0a2.371 2.371 0 1 1 2.371 2.374 2.373 2.373 0 0 1-2.373-2.374zM424.87 383.9a3.494 3.494 0 1 1 3.493 3.495 3.494 3.494 0 0 1-3.493-3.495zm-346.27 0a2.83 2.83 0 1 1 2.83 2.834 2.829 2.829 0 0 1-2.83-2.834zm320.135-1.99a4 4 0 1 1 3.994 4 3.993 3.993 0 0 1-3.998-4.004zm-295.038 0a3.37 3.37 0 1 1 3.371 3.374 3.368 3.368 0 0 1-3.375-3.378zm189.251-3.147a5.953 5.953 0 1 1 5.951 5.95 5.951 5.951 0 0 1-5.955-5.954zm-87.712 0a5.661 5.661 0 1 1 5.661 5.66 5.663 5.663 0 0 1-5.665-5.664zm166.464.4a4.494 4.494 0 1 1 4.493 4.5 4.493 4.493 0 0 1-4.493-4.505zm-241.963 0a3.869 3.869 0 1 1 3.87 3.874 3.868 3.868 0 0 1-3.874-3.879zm213.372-3.943a5.369 5.369 0 1 1 5.37 5.363 5.371 5.371 0 0 1-5.374-5.368zm-186.662 0a4.869 4.869 0 1 1 4.869 4.866 4.869 4.869 0 0 1-4.873-4.871zm156.327-5.933a6.451 6.451 0 1 1 6.451 6.449 6.455 6.455 0 0 1-6.454-6.454zm-128.071 0a5.869 5.869 0 1 1 5.87 5.864 5.873 5.873 0 0 1-5.873-5.869zm74.534-4.8a6.868 6.868 0 1 1 6.868 6.872 6.866 6.866 0 0 1-6.871-6.876zm-22.412 0a6.868 6.868 0 1 1 6.867 6.872 6.865 6.865 0 0 1-6.871-6.876zm249.063 2.122a2.208 2.208 0 1 1 2.2 2.208 2.206 2.206 0 0 1-2.203-2.211zm-24.094-.663a2.747 2.747 0 1 1 2.749 2.746 2.749 2.749 0 0 1-2.753-2.749zm-24.492-.867a3.288 3.288 0 1 1 3.29 3.287 3.29 3.29 0 0 1-3.292-3.289zm-417.225 1.53a1.623 1.623 0 1 1 1.622 1.619 1.626 1.626 0 0 1-1.625-1.621zm23.1-.663a2.081 2.081 0 1 1 2.081 2.078 2.083 2.083 0 0 1-2.087-2.08zm369.123-2.04a3.827 3.827 0 1 1 3.827 3.835 3.825 3.825 0 0 1-3.827-3.835zm-322.378 0a3.746 3.746 0 1 1 3.745 3.747 3.746 3.746 0 0 1-3.748-3.748zm-23.3 1.171a2.581 2.581 0 1 1 2.583 2.576 2.586 2.586 0 0 1-2.585-2.576zm319.368-2.789a4.995 4.995 0 1 1 5 4.994 5 5 0 0 1-5.002-4.994zm-104.707-2.461a6.742 6.742 0 1 1 6.743 6.746 6.743 6.743 0 0 1-6.745-6.746zm-166.723 2.461a4.245 4.245 0 1 1 4.247 4.244 4.246 4.246 0 0 1-4.247-4.244zm100.54-2.462a6.66 6.66 0 1 1 6.661 6.659 6.661 6.661 0 0 1-6.661-6.659zm144.323.127a5.494 5.494 0 1 1 5.495 5.495 5.491 5.491 0 0 1-5.491-5.495zm-219.428 0a4.87 4.87 0 1 1 4.869 4.872 4.87 4.87 0 0 1-4.864-4.871zm191.557-3.534a6.034 6.034 0 1 1 6.03 6.035 6.038 6.038 0 0 1-6.026-6.034zm-164.725 0a5.368 5.368 0 1 1 5.368 5.366 5.366 5.366 0 0 1-5.363-5.365zm134.554-5.708a7.117 7.117 0 1 1 7.117 7.119 7.118 7.118 0 0 1-7.113-7.118zm-107.048 0a6.95 6.95 0 1 1 6.951 6.95 6.948 6.948 0 0 1-6.947-6.95zm52.9-7.082a7.657 7.657 0 1 1 7.657 7.661 7.657 7.657 0 0 1-7.653-7.661zm200 1.446a3.538 3.538 0 1 1 3.539 3.538 3.543 3.543 0 0 1-3.536-3.538zm-24.01-.6a4.118 4.118 0 1 1 4.119 4.122 4.118 4.118 0 0 1-4.116-4.127zm47.679 1.054a2.955 2.955 0 1 1 2.955 2.957 2.954 2.954 0 0 1-2.952-2.962zm-72.2-1.895a4.746 4.746 0 1 1 4.744 4.751 4.74 4.74 0 0 1-4.746-4.756zm-129.266-2.921a7.656 7.656 0 1 1 7.655 7.655 7.656 7.656 0 0 1-7.654-7.659zm224.83 5.159a2.416 2.416 0 1 1 2.415 2.415 2.414 2.414 0 0 1-2.414-2.419zm-268.979-5.159a7.408 7.408 0 1 1 7.408 7.409 7.411 7.411 0 0 1-7.408-7.413zm-169.106 4.362a2.831 2.831 0 1 1 2.829 2.833 2.831 2.831 0 0 1-2.829-2.833zm22.849-.6a3.412 3.412 0 1 1 3.413 3.416 3.412 3.412 0 0 1-3.413-3.42zm-45.392 1.052a2.289 2.289 0 1 1 2.289 2.292 2.288 2.288 0 0 1-2.289-2.296zm339.9-3.109a5.368 5.368 0 1 1 5.369 5.372 5.368 5.368 0 0 1-5.367-5.376zm-362.22 3.45a1.789 1.789 0 1 1 1.79 1.791 1.789 1.789 0 0 1-1.79-1.791zm91.029-2.238a3.995 3.995 0 1 1 3.994 4 3.994 3.994 0 0 1-3.995-4.001zm23.912-1.217a4.62 4.62 0 1 1 4.62 4.623 4.618 4.618 0 0 1-4.621-4.623zm221.154-1.854a6.037 6.037 0 1 1 6.038 6.033 6.034 6.034 0 0 1-6.039-6.033zm-196.938 0a5.868 5.868 0 1 1 5.871 5.869 5.871 5.871 0 0 1-5.872-5.868zm169.045-3.023a7.116 7.116 0 1 1 7.117 7.114 7.118 7.118 0 0 1-7.118-7.113zm-142.815 0a6.451 6.451 0 1 1 6.45 6.453 6.448 6.448 0 0 1-6.455-6.452zm113.625-5.394a7.45 7.45 0 1 1 7.45 7.447 7.453 7.453 0 0 1-7.451-7.446zm-85.27 0a6.95 6.95 0 1 1 6.951 6.947 6.951 6.951 0 0 1-6.952-6.946zm52.477-10.93a8.532 8.532 0 1 1 8.532 8.538 8.53 8.53 0 0 1-8.533-8.538zm-22.3 0a8.491 8.491 0 1 1 8.489 8.489 8.485 8.485 0 0 1-8.492-8.488zm149.148 1.777a5.742 5.742 0 1 1 5.741 5.744 5.742 5.742 0 0 1-5.744-5.743zm-24.523-.8a6.451 6.451 0 1 1 6.454 6.45 6.45 6.45 0 0 1-6.457-6.446zm-25.346-1.315A7.117 7.117 0 1 1 341.63 328a7.113 7.113 0 0 1-7.117-7.122zm-219.765 2.116a4.911 4.911 0 1 1 4.913 4.911 4.913 4.913 0 0 1-4.913-4.911zm294.249.52a4.369 4.369 0 1 1 4.371 4.368A4.374 4.374 0 0 1 409 323.51zm-271.1-1.317a5.576 5.576 0 1 1 5.575 5.576 5.577 5.577 0 0 1-5.575-5.576zm-45.731 1.317a4.246 4.246 0 1 1 4.247 4.244 4.245 4.245 0 0 1-4.247-4.244zm340.321.359a3.745 3.745 0 1 1 3.743 3.742 3.746 3.746 0 0 1-3.743-3.742zm-362.558 0a3.621 3.621 0 1 1 3.621 3.619 3.622 3.622 0 0 1-3.621-3.619zm385.724.255a3.164 3.164 0 1 1 3.164 3.162 3.166 3.166 0 0 1-3.164-3.162zm-293.74-3.245a6.243 6.243 0 1 1 6.244 6.246 6.246 6.246 0 0 1-6.244-6.246zm-113.944 3.245a3 3 0 1 1 3 3 3 3 0 0 1-3-3zm430.651.192a2.579 2.579 0 1 1 2.58 2.582 2.582 2.582 0 0 1-2.58-2.582zm-452.451 0a2.414 2.414 0 1 1 2.414 2.418 2.413 2.413 0 0 1-2.414-2.419zm-21.729.144a1.915 1.915 0 1 1 1.915 1.917 1.916 1.916 0 0 1-1.915-1.918zm303.4-5.945a7.7 7.7 0 1 1 7.7 7.7 7.7 7.7 0 0 1-7.701-7.701zm-120.5 0a6.908 6.908 0 1 1 6.909 6.9 6.907 6.907 0 0 1-6.914-6.9zm91.519-4.942a8.2 8.2 0 1 1 8.2 8.2 8.2 8.2 0 0 1-8.205-8.2zm-64.242 0a8.116 8.116 0 1 1 8.115 8.116 8.117 8.117 0 0 1-8.119-8.116zm31.041-12.825a9.239 9.239 0 1 1 9.238 9.24 9.236 9.236 0 0 1-9.242-9.24zm100.438.723a6.742 6.742 0 1 1 6.743 6.743 6.745 6.745 0 0 1-6.742-6.743zm-24.373-.723a7.45 7.45 0 1 1 7.45 7.452 7.45 7.45 0 0 1-7.454-7.452zm-26.461-1.535a8.909 8.909 0 1 1 8.911 8.909 8.909 8.909 0 0 1-8.914-8.909zm-121.97 1.535a7.326 7.326 0 1 1 7.325 7.327 7.325 7.325 0 0 1-7.328-7.327zm-22.872.723a6.534 6.534 0 1 1 6.529 6.529 6.533 6.533 0 0 1-6.532-6.529zm219.418.394a5.952 5.952 0 1 1 5.953 5.952 5.95 5.95 0 0 1-5.957-5.952zm23.241.241a5.244 5.244 0 1 1 5.246 5.243 5.245 5.245 0 0 1-5.25-5.243zm-195.534-2.893a8.074 8.074 0 1 1 8.074 8.076 8.072 8.072 0 0 1-8.078-8.076zm-68.662 2.652a5.12 5.12 0 1 1 5.12 5.123 5.118 5.118 0 0 1-5.123-5.123zm287.166.4a4.536 4.536 0 1 1 4.537 4.54 4.535 4.535 0 0 1-4.54-4.544zm-308.994-.155a4.412 4.412 0 1 1 4.412 4.414 4.414 4.414 0 0 1-4.415-4.418zm331.747.261a3.87 3.87 0 1 1 3.87 3.871 3.867 3.867 0 0 1-3.875-3.875zm-353.345-.11a3.745 3.745 0 1 1 3.745 3.745 3.743 3.743 0 0 1-3.745-3.745zm375.925.184a3.246 3.246 0 1 1 3.244 3.247 3.243 3.243 0 0 1-3.244-3.247zM64 302.368a3.122 3.122 0 1 1 3.121 3.119A3.122 3.122 0 0 1 64 302.368zm419.833.132a2.664 2.664 0 1 1 2.663 2.666 2.661 2.661 0 0 1-2.666-2.666zm-441.21-.052a2.539 2.539 0 1 1 2.539 2.535 2.541 2.541 0 0 1-2.542-2.535zm-21.326.052a2 2 0 1 1 2 2 2 2 0 0 1-2.003-2zm245.676-7.5a9.364 9.364 0 1 1 9.364 9.364 9.363 9.363 0 0 1-9.364-9.364zM0 302.544a1.5 1.5 0 1 1 1.5 1.5 1.5 1.5 0 0 1-1.5-1.5zM224.711 295a8.74 8.74 0 1 1 8.742 8.736 8.741 8.741 0 0 1-8.742-8.736zm57.954-15.7a9.367 9.367 0 1 1 9.367 9.361 9.368 9.368 0 0 1-9.367-9.352zm24.144.555a8.533 8.533 0 1 1 8.535 8.532 8.536 8.536 0 0 1-8.535-8.523zm23.274.2a7.659 7.659 0 1 1 7.657 7.657 7.659 7.659 0 0 1-7.657-7.647zm-120.65-.756a8.324 8.324 0 1 1 8.322 8.322 8.324 8.324 0 0 1-8.322-8.312zm-22.478.555a7.491 7.491 0 1 1 7.491 7.493 7.492 7.492 0 0 1-7.49-7.483zm165.938.289a6.867 6.867 0 1 1 6.867 6.87 6.863 6.863 0 0 1-6.867-6.859zm-187.505-.089a6.66 6.66 0 1 1 6.66 6.657 6.661 6.661 0 0 1-6.66-6.646zm90.114-3.631a10.112 10.112 0 1 1 10.114 10.114 10.113 10.113 0 0 1-10.116-10.104zm-21.277 0a9.947 9.947 0 1 1 9.948 9.947 9.945 9.945 0 0 1-9.949-9.937zm141.249 3.773a6.12 6.12 0 1 1 6.122 6.116 6.12 6.12 0 0 1-6.122-6.106zm-231.357-.052a5.91 5.91 0 1 1 5.91 5.91 5.912 5.912 0 0 1-5.91-5.9zm253.822.082a5.371 5.371 0 1 1 5.372 5.369 5.371 5.371 0 0 1-5.372-5.359zm-274.946-.029a5.2 5.2 0 1 1 5.205 5.2 5.205 5.205 0 0 1-5.205-5.191zm297.349.047a4.62 4.62 0 1 1 4.62 4.623 4.621 4.621 0 0 1-4.62-4.614zm-318.32-.017a4.454 4.454 0 1 1 4.456 4.453 4.455 4.455 0 0 1-4.456-4.444zm340.592.033a3.954 3.954 0 1 1 3.951 3.951 3.953 3.953 0 0 1-3.951-3.942zm-361.576-.016a3.787 3.787 0 1 1 3.788 3.788 3.787 3.787 0 0 1-3.788-3.779zm383.772.026a3.329 3.329 0 1 1 3.33 3.329 3.328 3.328 0 0 1-3.33-3.321zm-404.753-.009a3.163 3.163 0 1 1 3.163 3.164 3.163 3.163 0 0 1-3.163-3.156zm426.929.016a2.705 2.705 0 1 1 2.706 2.7 2.707 2.707 0 0 1-2.706-2.692zm-447.917-.007a2.58 2.58 0 1 1 2.58 2.578 2.579 2.579 0 0 1-2.58-2.57zm-21.009.007a2.038 2.038 0 1 1 2.039 2.04 2.039 2.039 0 0 1-2.039-2.032zm248.329-22.418a9.947 9.947 0 1 1 9.947 9.945 9.947 9.947 0 0 1-9.947-9.937zm-21.359 0a9.864 9.864 0 1 1 9.864 9.863 9.863 9.863 0 0 1-9.864-9.855zm43.511 0a9.24 9.24 0 1 1 9.237 9.237 9.238 9.238 0 0 1-9.236-9.229zm-64.2 0a9.115 9.115 0 1 1 9.117 9.113 9.119 9.119 0 0 1-9.121-9.105zm86.392 0a8.492 8.492 0 1 1 8.492 8.486 8.491 8.491 0 0 1-8.496-8.478zm-107 0a8.281 8.281 0 1 1 8.282 8.28 8.284 8.284 0 0 1-8.287-8.272zm129.276 0a7.657 7.657 0 1 1 7.66 7.654 7.66 7.66 0 0 1-7.669-7.646zm-149.884 0a7.449 7.449 0 1 1 7.45 7.448 7.449 7.449 0 0 1-7.455-7.44zm172.115 0a6.867 6.867 0 1 1 6.867 6.867 6.87 6.87 0 0 1-6.872-6.859zm-192.766 0a6.659 6.659 0 1 1 6.659 6.657 6.66 6.66 0 0 1-6.665-6.649zm214.959 0a6.118 6.118 0 1 1 6.117 6.117 6.12 6.12 0 0 1-6.122-6.109zm-235.653 0a5.91 5.91 0 1 1 5.911 5.908 5.914 5.914 0 0 1-5.916-5.9zm257.886 0a5.328 5.328 0 1 1 5.328 5.325 5.329 5.329 0 0 1-5.333-5.317zm-278.577 0a5.16 5.16 0 1 1 5.161 5.158 5.161 5.161 0 0 1-5.167-5.15zm300.731 0a4.619 4.619 0 1 1 4.62 4.62 4.62 4.62 0 0 1-4.626-4.613zm-321.466 0a4.452 4.452 0 1 1 4.452 4.453 4.453 4.453 0 0 1-4.458-4.445zm343.569 0a3.955 3.955 0 1 1 3.955 3.951 3.957 3.957 0 0 1-3.961-3.943zm-364.345 0a3.788 3.788 0 1 1 3.788 3.787 3.787 3.787 0 0 1-3.794-3.779zm386.413 0a3.332 3.332 0 1 1 3.329 3.33 3.332 3.332 0 0 1-3.334-3.323zm-407.235 0a3.164 3.164 0 1 1 3.164 3.164 3.164 3.164 0 0 1-3.169-3.156zm429.3 0a2.7 2.7 0 1 1 2.7 2.7 2.7 2.7 0 0 1-2.704-2.692zm-450.16 0a2.581 2.581 0 1 1 2.583 2.58 2.583 2.583 0 0 1-2.587-2.573zm-20.9 0a2.039 2.039 0 1 1 2.04 2.036 2.04 2.04 0 0 1-2.044-2.028zm239.464-18.564a9.157 9.157 0 1 1 9.157 9.157 9.156 9.156 0 0 1-9.157-9.157zm-21.4 0a9.114 9.114 0 1 1 9.114 9.115 9.114 9.114 0 0 1-9.114-9.11zm48.234-2.874a8.739 8.739 0 1 1 8.739 8.742 8.742 8.742 0 0 1-8.739-8.741zm-73.488 0a7.949 7.949 0 1 1 7.947 7.949 7.947 7.947 0 0 1-7.947-7.948zm97.418-.558a8.116 8.116 0 1 1 8.118 8.116 8.117 8.117 0 0 1-8.118-8.115zm23.107-.2a7.408 7.408 0 1 1 7.408 7.408 7.407 7.407 0 0 1-7.408-7.404zm-143.084.2a7.2 7.2 0 1 1 7.2 7.2 7.2 7.2 0 0 1-7.2-7.198zm165.857-.29a6.658 6.658 0 1 1 6.658 6.657 6.66 6.66 0 0 1-6.662-6.655zm-187.55.093a6.493 6.493 0 1 1 6.494 6.49 6.494 6.494 0 0 1-6.494-6.488zm210.13-.142a5.909 5.909 0 1 1 5.91 5.908 5.909 5.909 0 0 1-5.91-5.906zm-231.443.049a5.786 5.786 0 1 1 5.785 5.783 5.785 5.785 0 0 1-5.785-5.781zm253.827-.083a5.244 5.244 0 1 1 5.245 5.246 5.243 5.243 0 0 1-5.245-5.244zm-274.95.032a5.077 5.077 0 1 1 5.082 5.078 5.078 5.078 0 0 1-5.082-5.075zm297.308-.049a4.535 4.535 0 1 1 4.535 4.535 4.537 4.537 0 0 1-4.535-4.533zm-318.319.017a4.369 4.369 0 1 1 4.371 4.371 4.369 4.369 0 0 1-4.371-4.369zm340.59-.029a3.872 3.872 0 1 1 3.87 3.87 3.87 3.87 0 0 1-3.867-3.868zm-361.618.012a3.746 3.746 0 1 1 3.746 3.745 3.745 3.745 0 0 1-3.746-3.743zm383.814-.025a3.247 3.247 0 1 1 3.247 3.247 3.247 3.247 0 0 1-3.247-3.244zm-404.793.014a3.121 3.121 0 1 1 3.122 3.12 3.122 3.122 0 0 1-3.122-3.12zm426.925-.017a2.665 2.665 0 1 1 2.669 2.661 2.666 2.666 0 0 1-2.67-2.661zm-447.914.008a2.54 2.54 0 1 1 2.541 2.536 2.542 2.542 0 0 1-2.542-2.535zm-20.966-.008A1.955 1.955 0 1 1 20.1 237.4a1.956 1.956 0 0 1-1.956-1.954zm249.868-14.719a8.324 8.324 0 1 1 8.322 8.323 8.322 8.322 0 0 1-8.323-8.323zm-42.509 0a7.95 7.95 0 1 1 7.95 7.949 7.949 7.949 0 0 1-7.954-7.949zm70.593-4.209a8.076 8.076 0 1 1 8.074 8.074 8.074 8.074 0 0 1-8.071-8.073zm-97.928 0a7.45 7.45 0 1 1 7.449 7.451 7.45 7.45 0 0 1-7.449-7.451zm48.444-1.537a8.282 8.282 0 1 1 8.282 8.283 8.282 8.282 0 0 1-8.282-8.283zm75.609 0a6.951 6.951 0 1 1 6.953 6.95 6.953 6.953 0 0 1-6.954-6.95zm-148.429 0a6.824 6.824 0 1 1 6.823 6.825 6.826 6.826 0 0 1-6.823-6.825zm172.716-.72a6.327 6.327 0 1 1 6.327 6.324 6.327 6.327 0 0 1-6.327-6.324zm-195.715 0a6.159 6.159 0 1 1 6.158 6.157 6.159 6.159 0 0 1-6.158-6.156zm219.336-.4a5.66 5.66 0 1 1 5.662 5.659 5.665 5.665 0 0 1-5.662-5.655zm-241 0a4.869 4.869 0 1 1 4.87 4.873 4.872 4.872 0 0 1-4.869-4.869zm264.195-.242a4.994 4.994 0 1 1 5 5 4.994 4.994 0 0 1-4.999-4.996zm22.932-.155a4.327 4.327 0 1 1 4.328 4.328 4.329 4.329 0 0 1-4.327-4.324zm-308.951.158a4.162 4.162 0 1 1 4.163 4.161 4.164 4.164 0 0 1-4.163-4.157zm331.616-.265a3.745 3.745 0 1 1 3.747 3.745 3.747 3.747 0 0 1-3.746-3.741zm-353.3.107a3.579 3.579 0 1 1 3.579 3.581 3.579 3.579 0 0 1-3.578-3.577zm375.885-.184a3.122 3.122 0 1 1 3.123 3.123 3.124 3.124 0 0 1-3.122-3.119zm-397.345.077a2.956 2.956 0 1 1 2.955 2.956 2.953 2.953 0 0 1-2.954-2.952zm419.794-.134a2.538 2.538 0 1 1 2.537 2.542 2.538 2.538 0 0 1-2.536-2.538zm-441.169.06a2.372 2.372 0 1 1 2.372 2.37 2.372 2.372 0 0 1-2.371-2.366zm-21.409-.061a1.914 1.914 0 1 1 1.916 1.916 1.914 1.914 0 0 1-1.915-1.912zm-21.3-.042A1.417 1.417 0 1 1 1.5 214.6a1.417 1.417 0 0 1-1.417-1.416zm278.9-11.026a8.073 8.073 0 1 1 8.073 8.074 8.076 8.076 0 0 1-8.068-8.07zm-64.2 0a7.949 7.949 0 1 1 7.949 7.949 7.949 7.949 0 0 1-7.945-7.945zm93.848-4.941a6.911 6.911 0 1 1 6.912 6.91 6.911 6.911 0 0 1-6.908-6.906zm-120.666 0a6.285 6.285 0 1 1 6.284 6.286 6.284 6.284 0 0 1-6.279-6.281zm70.608-2.7a7.492 7.492 0 1 1 7.493 7.49 7.492 7.492 0 0 1-7.488-7.484zm-22.3 0a7.449 7.449 0 1 1 7.449 7.448 7.448 7.448 0 0 1-7.441-7.442zm98.9.329a6.45 6.45 0 1 1 6.449 6.453 6.448 6.448 0 0 1-6.436-6.447zm-172.764 0a5.743 5.743 0 1 1 5.743 5.745 5.743 5.743 0 0 1-5.73-5.739zm198.025-1.309a5.868 5.868 0 1 1 5.87 5.868 5.871 5.871 0 0 1-5.857-5.862zm-222.125 0a5.16 5.16 0 1 1 5.16 5.159 5.16 5.16 0 0 1-5.147-5.15zm246.522-.8a5.287 5.287 0 1 1 5.287 5.285 5.288 5.288 0 0 1-5.274-5.275zm-269.711 0a4.536 4.536 0 1 1 4.538 4.538 4.537 4.537 0 0 1-4.525-4.529zm294.167-.521a4.079 4.079 0 1 1 4.082 4.082 4.08 4.08 0 0 1-4.069-4.073zm-316.79 0a3.912 3.912 0 1 1 3.911 3.912 3.912 3.912 0 0 1-3.903-3.902zm340.233-.357a3.5 3.5 0 1 1 3.494 3.494 3.494 3.494 0 0 1-3.481-3.484zm-362.515 0a3.33 3.33 0 1 1 3.332 3.329 3.332 3.332 0 0 1-3.319-3.319zm385.685-.259a2.914 2.914 0 1 1 2.913 2.913 2.91 2.91 0 0 1-2.9-2.908zm-407.728 0a2.788 2.788 0 1 1 2.789 2.789 2.787 2.787 0 0 1-2.776-2.784zm430.651-.19a2.372 2.372 0 1 1 2.372 2.373 2.373 2.373 0 0 1-2.359-2.363zm-452.5 0a2.248 2.248 0 1 1 2.248 2.248 2.248 2.248 0 0 1-2.231-2.237zm-21.729-.147a1.749 1.749 0 1 1 1.75 1.749 1.749 1.749 0 0 1-1.733-1.738zm285.848-7.68a7.325 7.325 0 1 1 7.327 7.323 7.329 7.329 0 0 1-7.31-7.312zm-85.272 0a6.826 6.826 0 1 1 6.826 6.824 6.826 6.826 0 0 1-6.809-6.813zm115.208-5.4a6.244 6.244 0 1 1 6.244 6.244 6.245 6.245 0 0 1-6.227-6.231zm-142.978 0a5.744 5.744 0 1 1 5.742 5.743 5.743 5.743 0 0 1-5.725-5.73zm93.019-3.172a6.661 6.661 0 1 1 6.661 6.66 6.662 6.662 0 0 1-6.644-6.647zm-44.23 0a6.492 6.492 0 1 1 6.492 6.491 6.494 6.494 0 0 1-6.476-6.478zm121.875.15a5.371 5.371 0 1 1 5.375 5.369 5.372 5.372 0 0 1-5.358-5.356zm-196.98 0a5.244 5.244 0 1 1 5.245 5.245 5.243 5.243 0 0 1-5.224-5.232zm97.14-3.073a6.66 6.66 0 1 1 6.659 6.661 6.657 6.657 0 0 1-6.641-6.644zm125.8 1.22a4.87 4.87 0 1 1 4.872 4.869 4.871 4.871 0 0 1-4.854-4.857zm-247.318 0a4.162 4.162 0 1 1 4.161 4.162 4.162 4.162 0 0 1-4.142-4.151zm272.462-1.203a4.287 4.287 0 1 1 4.286 4.286 4.287 4.287 0 0 1-4.286-4.286zm-296.488 0a3.663 3.663 0 1 1 3.662 3.661 3.665 3.665 0 0 1-3.661-3.661zm320.927-.842a3.745 3.745 0 1 1 3.746 3.742 3.746 3.746 0 0 1-3.748-3.743zm-344.238 0a3.08 3.08 0 1 1 3.081 3.08 3.079 3.079 0 0 1-3.081-3.081zm368.21-.6a3.2 3.2 0 1 1 3.2 3.2 3.206 3.206 0 0 1-3.2-3.204zm-391.141 0a2.58 2.58 0 1 1 2.578 2.579 2.58 2.58 0 0 1-2.578-2.583zM471.2 170.2a2.664 2.664 0 1 1 2.664 2.663 2.664 2.664 0 0 1-2.664-2.663zm-437.31 0a2.04 2.04 0 1 1 2.042 2.042 2.04 2.04 0 0 1-2.045-2.042zm460.588-.341a2.206 2.206 0 1 1 2.208 2.2 2.207 2.207 0 0 1-2.211-2.198zm-482.948 0a1.581 1.581 0 1 1 1.581 1.582 1.582 1.582 0 0 1-1.584-1.58zm290.73-4.844a6.243 6.243 0 1 1 6.244 6.244 6.243 6.243 0 0 1-6.247-6.242zm-107.128 0a6.161 6.161 0 1 1 6.161 6.16 6.159 6.159 0 0 1-6.164-6.158zm136.6-5.705a5.867 5.867 0 1 1 5.864 5.868 5.867 5.867 0 0 1-5.872-5.866zm-164.769 0a5.245 5.245 0 1 1 5.244 5.245 5.244 5.244 0 0 1-5.252-5.243zM282.2 155.9a5.825 5.825 0 1 1 5.826 5.826 5.825 5.825 0 0 1-5.826-5.826zm-66.22 0a5.785 5.785 0 1 1 5.786 5.786 5.784 5.784 0 0 1-5.787-5.786zm144.075-.128a4.869 4.869 0 1 1 4.866 4.869 4.867 4.867 0 0 1-4.867-4.867zm-219.431 0a4.246 4.246 0 1 1 4.246 4.244 4.246 4.246 0 0 1-4.247-4.241zm245.989-2.335a4.371 4.371 0 1 1 4.374 4.371 4.372 4.372 0 0 1-4.375-4.368zm-271.552 0a3.746 3.746 0 1 1 3.746 3.745 3.745 3.745 0 0 1-3.747-3.742zm145.133-2.2a5.909 5.909 0 1 1 5.908 5.911 5.908 5.908 0 0 1-5.909-5.909zm-22.419 0a5.912 5.912 0 1 1 5.911 5.911 5.911 5.911 0 0 1-5.912-5.909zm174.937.584a3.412 3.412 0 1 1 3.413 3.411 3.413 3.413 0 0 1-3.413-3.409zm-322.3 0a3.247 3.247 0 1 1 3.247 3.244 3.246 3.246 0 0 1-3.243-3.242zm347.3-1.168a2.872 2.872 0 1 1 2.873 2.873 2.874 2.874 0 0 1-2.87-2.872zm-370.8 0a2.289 2.289 0 1 1 2.287 2.287 2.289 2.289 0 0 1-2.286-2.283zm395.252-.872a2.372 2.372 0 1 1 2.372 2.375 2.375 2.375 0 0 1-2.371-2.371zm-148.521-3.336a5.577 5.577 0 1 1 5.577 5.576 5.577 5.577 0 0 1-5.575-5.572zm-270.221 3.339a1.831 1.831 0 1 1 1.83 1.832 1.831 1.831 0 0 1-1.83-1.832zm141.985-3.336a5.162 5.162 0 1 1 5.164 5.161 5.162 5.162 0 0 1-5.164-5.161zm300.77 2.675a1.915 1.915 0 1 1 1.913 1.916 1.914 1.914 0 0 1-1.913-1.917zm-465.9 0a1.415 1.415 0 1 1 1.414 1.416 1.414 1.414 0 0 1-1.409-1.418zm322.951-8.606a5.244 5.244 0 1 1 5.243 5.245 5.243 5.243 0 0 1-5.238-5.247zm-186.622 0a4.7 4.7 0 1 1 4.7 4.7 4.7 4.7 0 0 1-4.696-4.702zm137.166-3.546a5.121 5.121 0 1 1 5.119 5.121 5.12 5.12 0 0 1-5.115-5.123zm-87.751 0a4.87 4.87 0 1 1 4.868 4.872 4.867 4.867 0 0 1-4.864-4.875zm166.294-.4a3.871 3.871 0 1 1 3.873 3.87 3.869 3.869 0 0 1-3.869-3.87zm-242.05 0a3.331 3.331 0 1 1 3.332 3.33 3.331 3.331 0 0 1-3.328-3.33zm269-2.752a3.456 3.456 0 1 1 3.456 3.456 3.453 3.453 0 0 1-3.449-3.456zm-295.079 0a2.871 2.871 0 1 1 2.87 2.873 2.87 2.87 0 0 1-2.864-2.872zm167.838-2.654a5.2 5.2 0 1 1 5.205 5.2 5.2 5.2 0 0 1-5.199-5.199zm-44.552 0a5.078 5.078 0 1 1 5.077 5.078 5.077 5.077 0 0 1-5.071-5.077zm197.888.665a3 3 0 1 1 3 2.995 3 3 0 0 1-2.994-2.993zm-175.632-2.62a5.161 5.161 0 1 1 5.161 5.161 5.16 5.16 0 0 1-5.155-5.159zm-170.761 2.62a2.455 2.455 0 1 1 2.454 2.456 2.454 2.454 0 0 1-2.449-2.454zm371.762-1.483a2.58 2.58 0 1 1 2.579 2.579 2.579 2.579 0 0 1-2.573-2.577zm-125.412-2.47a4.62 4.62 0 1 1 4.62 4.62 4.619 4.619 0 0 1-4.614-4.618zm-150.01 0a4.537 4.537 0 1 1 4.535 4.537 4.534 4.534 0 0 1-4.529-4.535zm-120.828 2.471a2 2 0 1 1 2 2 2 2 0 0 1-2-2zm421.541-1.136a1.706 1.706 0 1 1 1.709 1.708 1.706 1.706 0 0 1-1.71-1.708zm-445.539 0a1.581 1.581 0 1 1 1.582 1.582 1.583 1.583 0 0 1-1.583-1.581zm-23.611-.889a1.208 1.208 0 1 1 1.207 1.205 1.207 1.207 0 0 1-1.208-1.204zm348.206-6.546a4.245 4.245 0 1 1 4.243 4.243 4.244 4.244 0 0 1-4.244-4.243zm-208.351 0a3.746 3.746 0 1 1 3.745 3.745 3.746 3.746 0 0 1-3.746-3.746zm158.1-3.63a4.911 4.911 0 1 1 4.911 4.911 4.912 4.912 0 0 1-4.916-4.911zm-109.632 0a4.871 4.871 0 1 1 4.87 4.869 4.869 4.869 0 0 1-4.874-4.87zm188.266-.647a3.871 3.871 0 1 1 3.867 3.87 3.87 3.87 0 0 1-3.871-3.87zm-264.318 0a3.329 3.329 0 1 1 3.328 3.33 3.33 3.33 0 0 1-3.332-3.33zm292.524-3.11a2.579 2.579 0 1 1 2.579 2.58 2.579 2.579 0 0 1-2.583-2.582zm-318.609 0a2.5 2.5 0 1 1 2.5 2.494 2.5 2.5 0 0 1-2.504-2.493zm190.831-2.858a4.41 4.41 0 1 1 4.408 4.411 4.409 4.409 0 0 1-4.412-4.41zm-66.757 0a4.37 4.37 0 1 1 4.37 4.368 4.368 4.368 0 0 1-4.374-4.367zm220.96.531a2.205 2.205 0 1 1 2.206 2.206 2.205 2.205 0 0 1-2.21-2.205zm-370.3 0a1.707 1.707 0 1 1 1.708 1.707 1.708 1.708 0 0 1-1.712-1.706zm268.884-2.754a3.994 3.994 0 1 1 4 3.995 4 4 0 0 1-4.005-3.994zm-171.206 0a3.663 3.663 0 1 1 3.663 3.666 3.663 3.663 0 0 1-3.668-3.667zm96.194-1.119a4.453 4.453 0 1 1 4.452 4.455 4.454 4.454 0 0 1-4.457-4.456zm-22.43 0a4.453 4.453 0 1 1 4.451 4.455 4.451 4.451 0 0 1-4.457-4.456zm224.648 2.09a1.791 1.791 0 1 1 1.792 1.789 1.79 1.79 0 0 1-1.797-1.79zm-421.084 0a1.331 1.331 0 1 1 1.331 1.334 1.332 1.332 0 0 1-1.336-1.335zm446.28-1.394a1.417 1.417 0 1 1 1.418 1.415 1.417 1.417 0 0 1-1.423-1.416zm-470.77 0a1 1 0 1 1 1 1 1 1 0 0 1-1.006-1.002zm348.088-5.813a3.746 3.746 0 1 1 3.744 3.744 3.745 3.745 0 0 1-3.75-3.746zm-229.978 0a3.246 3.246 0 1 1 3.246 3.247 3.245 3.245 0 0 1-3.252-3.247zm179.881-3.687a4.246 4.246 0 1 1 4.246 4.246 4.247 4.247 0 0 1-4.252-4.246zm-130.956 0a3.913 3.913 0 1 1 3.912 3.912 3.912 3.912 0 0 1-3.918-3.913zm210.035-.867a3 3 0 1 1 3 3 3 3 0 0 1-3.005-3.001zm-286.448 0a2.5 2.5 0 1 1 2.5 2.5 2.5 2.5 0 0 1-2.505-2.498zM423.017 95.1a2.579 2.579 0 1 1 2.581 2.579 2.58 2.58 0 0 1-2.581-2.579zm-340.9 0a2.081 2.081 0 1 1 2.081 2.079 2.081 2.081 0 0 1-2.085-2.079zm213.432-2.927a3.746 3.746 0 1 1 3.745 3.745 3.745 3.745 0 0 1-3.749-3.744zm-88.626 0a3.579 3.579 0 1 1 3.578 3.578 3.581 3.581 0 0 1-3.582-3.577zm243.251.3A1.83 1.83 0 1 1 452 94.3a1.83 1.83 0 0 1-1.83-1.827zM348.22 90.742a3.164 3.164 0 1 1 3.164 3.162 3.164 3.164 0 0 1-3.164-3.162zM56.374 92.473a1.415 1.415 0 1 1 1.414 1.416 1.414 1.414 0 0 1-1.414-1.416zm98.952-1.731a3.079 3.079 0 1 1 3.081 3.079 3.079 3.079 0 0 1-3.081-3.079zM273.5 87.8a3.788 3.788 0 1 1 3.785 3.788A3.786 3.786 0 0 1 273.5 87.8zm203.072 2.615a1.165 1.165 0 1 1 1.168 1.166 1.167 1.167 0 0 1-1.169-1.17zM228.757 87.8a3.745 3.745 0 1 1 3.746 3.748 3.746 3.746 0 0 1-3.746-3.748zM30.97 90.411a1.083 1.083 0 1 1 1.084 1.081 1.084 1.084 0 0 1-1.084-1.081zm220.136-4.082a3.788 3.788 0 1 1 3.787 3.787 3.788 3.788 0 0 1-3.787-3.788zM6.076 88.763a.791.791 0 1 1 .79.79.79.79 0 0 1-.79-.79zM378.1 84.395a2.829 2.829 0 1 1 2.828 2.83 2.828 2.828 0 0 1-2.828-2.83zm-251.693 0a2.455 2.455 0 1 1 2.454 2.455 2.455 2.455 0 0 1-2.455-2.45zm201.51-3.727a3.412 3.412 0 1 1 3.413 3.411 3.413 3.413 0 0 1-3.414-3.41zm-152.786 0A3.33 3.33 0 1 1 178.46 84a3.329 3.329 0 0 1-3.33-3.331zm231.682-1.058a2.538 2.538 0 1 1 2.534 2.539 2.537 2.537 0 0 1-2.534-2.539zm-308.458 0a2.082 2.082 0 1 1 2.08 2.082 2.081 2.081 0 0 1-2.08-2.081zM435 75.923a1.833 1.833 0 1 1 1.837 1.831A1.834 1.834 0 0 1 435 75.923zm-363.8 0a1.747 1.747 0 1 1 1.745 1.749 1.746 1.746 0 0 1-1.745-1.75zm236.04-2.93a3 3 0 1 1 3 3 3 3 0 0 1-2.995-3.001zm-110.648 0a2.955 2.955 0 1 1 2.953 2.956 2.955 2.955 0 0 1-2.945-2.956zm162.925-.823a2.582 2.582 0 1 1 2.582 2.582 2.58 2.58 0 0 1-2.578-2.582zm-214.127 0a2.289 2.289 0 1 1 2.289 2.287 2.289 2.289 0 0 1-2.285-2.284zm316.935.849a1.209 1.209 0 1 1 1.206 1.206 1.209 1.209 0 0 1-1.201-1.203zm-416.912 0a.833.833 0 1 1 .831.832.833.833 0 0 1-.826-.831zM488.677 70.7a.917.917 0 1 1 .914.917.919.919 0 0 1-.914-.917zm-469.1 0a.624.624 0 1 1 .624.625.624.624 0 0 1-.629-.625zm265.711-2.884a3.121 3.121 0 1 1 3.119 3.125 3.121 3.121 0 0 1-3.124-3.125zm-67.022 0a3.122 3.122 0 1 1 3.123 3.125 3.123 3.123 0 0 1-3.127-3.125zm44.69-2.6a3.163 3.163 0 1 1 3.164 3.163 3.163 3.163 0 0 1-3.169-3.166zm-22.439 0a3.163 3.163 0 1 1 3.162 3.163 3.161 3.161 0 0 1-3.167-3.166zm149.109.524a2.083 2.083 0 1 1 2.083 2.081 2.084 2.084 0 0 1-2.087-2.085zm-273.537 0a2 2 0 1 1 2 2 2 2 0 0 1-2.005-2.004zm223.191-3.756a2.831 2.831 0 1 1 2.831 2.828 2.828 2.828 0 0 1-2.835-2.831zm-174.173 0a2.58 2.58 0 1 1 2.581 2.579 2.579 2.579 0 0 1-2.588-2.58zm253.4-1.225a1.789 1.789 0 1 1 1.786 1.789 1.787 1.787 0 0 1-1.793-1.79zm-330.41 0a1.415 1.415 0 1 1 1.403 1.414 1.416 1.416 0 0 1-1.412-1.415zM446.5 56.833a1.5 1.5 0 1 1 1.493 1.5 1.5 1.5 0 0 1-1.493-1.5zm-385.818 0a1.123 1.123 0 1 1 1.118 1.121 1.125 1.125 0 0 1-1.123-1.123zm257.477-2.893a3 3 0 1 1 3 3 3 3 0 0 1-3.005-3.002zm-132.309 0a2.788 2.788 0 1 1 2.789 2.791 2.787 2.787 0 0 1-2.794-2.793zm184.606-.34a2.372 2.372 0 1 1 2.37 2.372 2.373 2.373 0 0 1-2.37-2.372zm-235.783 0a2.289 2.289 0 1 1 2.288 2.289 2.288 2.288 0 0 1-2.288-2.289zm339.07.084a1.207 1.207 0 1 1 1.205 1.206 1.2 1.2 0 0 1-1.205-1.204zm-439.737 0a.833.833 0 1 1 .832.832.832.832 0 0 1-.832-.83zm-26.037-2.56a.542.542 0 1 1 .542.541.542.542 0 0 1-.542-.541zm288.966-2.993a2.538 2.538 0 1 1 2.54 2.537 2.541 2.541 0 0 1-2.54-2.536zm-88.994 0a2.373 2.373 0 1 1 2.373 2.372 2.374 2.374 0 0 1-2.374-2.371zm192.873-1.039a1.663 1.663 0 1 1 1.664 1.668 1.662 1.662 0 0 1-1.665-1.668zm-294.836 0a1.333 1.333 0 1 1 1.332 1.334 1.334 1.334 0 0 1-1.333-1.334zm168.751-2.474a2.58 2.58 0 1 1 2.579 2.582 2.582 2.582 0 0 1-2.58-2.582zm-44.785 0a2.539 2.539 0 1 1 2.538 2.536 2.537 2.537 0 0 1-2.539-2.533zm22.371-1.176a2.58 2.58 0 1 1 2.582 2.579 2.581 2.581 0 0 1-2.584-2.576zm98.478-.127a2.083 2.083 0 1 1 2.083 2.081 2.085 2.085 0 0 1-2.084-2.079zm-195.918 0a2.04 2.04 0 1 1 2.04 2.039 2.042 2.042 0 0 1-2.042-2.037zm274.9-1.371a1.415 1.415 0 1 1 1.415 1.415 1.415 1.415 0 0 1-1.42-1.412zm-352.25 0a1.083 1.083 0 1 1 1.075 1.082 1.081 1.081 0 0 1-1.08-1.079zm380.638-4.134a.917.917 0 1 1 .914.914.915.915 0 0 1-.919-.911zm-408.274 0a.832.832 0 1 1 .832.831.83.83 0 0 1-.837-.829zm279.864-2.838a2.289 2.289 0 1 1 2.29 2.287 2.292 2.292 0 0 1-2.295-2.285zm-154.244 0a2.247 2.247 0 1 1 2.248 2.248 2.247 2.247 0 0 1-2.257-2.246zm206.129.058a1.914 1.914 0 1 1 1.913 1.913 1.912 1.912 0 0 1-1.917-1.911zm-256.972 0a1.582 1.582 0 1 1 1.582 1.582 1.581 1.581 0 0 1-1.586-1.58zm360.887-.588a.709.709 0 1 1 .71.705.709.709 0 0 1-.714-.703zm-462.558 0a.541.541 0 1 1 .542.544.54.54 0 0 1-.547-.547zm285.6-5.789a1.914 1.914 0 1 1 1.912 1.913 1.912 1.912 0 0 1-1.917-1.916zm-111.216 0a1.915 1.915 0 1 1 1.916 1.913 1.913 1.913 0 0 1-1.921-1.916zm214.821-.192a1.04 1.04 0 1 1 1.041 1.039 1.037 1.037 0 0 1-1.041-1.039zm-316.651 0a1 1 0 1 1 1 1 1 1 0 0 1-.997-1.002zM286.463 24.4a2 2 0 1 1 2 2 2 2 0 0 1-2-2zm-67.091 0a1.956 1.956 0 1 1 1.956 1.956 1.954 1.954 0 0 1-1.956-1.956zm142.64.268a1.624 1.624 0 1 1 1.624 1.622 1.625 1.625 0 0 1-1.624-1.621zm-217.274 0a1.415 1.415 0 1 1 1.414 1.415 1.414 1.414 0 0 1-1.415-1.415zm119.342-2.4a2.041 2.041 0 1 1 2.041 2.039 2.042 2.042 0 0 1-2.042-2.038zm-22.446 0a2.039 2.039 0 1 1 2.041 2.039 2.041 2.041 0 0 1-2.042-2.038zm199.594.9a.832.832 0 1 1 .831.832.833.833 0 0 1-.832-.831zm-374.12 0a.623.623 0 1 1 .624.624.623.623 0 0 1-.625-.623zm402.339-4.321a.664.664 0 1 1 .662.665.665.665 0 0 1-.663-.664zm-430.3 0a.54.54 0 1 1 .54.541.541.541 0 0 1-.544-.543zm301.965-2.768a1.791 1.791 0 1 1 1.789 1.788 1.791 1.791 0 0 1-1.793-1.789zm51.915.385a1.247 1.247 0 1 1 1.245 1.245 1.246 1.246 0 0 1-1.249-1.246zm-278.709 0a1.207 1.207 0 1 1 1.208 1.206 1.205 1.205 0 0 1-1.212-1.207zm51-.386a1.581 1.581 0 1 1 1.581 1.583 1.582 1.582 0 0 1-1.589-1.584zm331.633-.8a.539.539 0 1 1 .538.541.541.541 0 0 1-.546-.544zm-485.178 0a.541.541 0 1 1 .541.541.542.542 0 0 1-.548-.544zm307.805-5.952a1.914 1.914 0 1 1 1.913 1.914 1.914 1.914 0 0 1-1.913-1.914zm-133.027 0a1.749 1.749 0 1 1 1.75 1.749 1.749 1.749 0 0 1-1.75-1.749zm236.4.512A1.039 1.039 0 1 1 424 10.876a1.043 1.043 0 0 1-1.044-1.038zM85 9.838a.791.791 0 1 1 .789.79.793.793 0 0 1-.789-.79zm288.309-3.806a1.082 1.082 0 1 1 1.082 1.082 1.083 1.083 0 0 1-1.082-1.082zm-238.954 0a1.042 1.042 0 1 1 1.045 1.04 1.04 1.04 0 0 1-1.045-1.039zm163.723-1.561a1.5 1.5 0 1 1 1.5 1.5 1.5 1.5 0 0 1-1.5-1.5zm-89.277 0a1.415 1.415 0 1 1 1.415 1.413A1.416 1.416 0 0 1 208.8 4.47zm243.49-.052a.623.623 0 1 1 .623.624.622.622 0 0 1-.624-.626zm-395.954 0a.541.541 0 1 1 .542.541.54.54 0 0 1-.543-.545zM275.779 1.54a1.539 1.539 0 1 1 1.54 1.54 1.54 1.54 0 0 1-1.54-1.54zm-44.807 0a1.5 1.5 0 1 1 1.5 1.5 1.5 1.5 0 0 1-1.499-1.5z" class="cls-3" data-name="Union 30" transform="rotate(134.03 404.711 1057.043)"/>
    </g>
</svg>
